<svg width="332" height="266" viewBox="0 0 332 266" fill="none" xmlns="http://www.w3.org/2000/svg">
<path fill-rule="evenodd" clip-rule="evenodd" d="M326.818 67.9664C326.565 67.7825 325.965 67.7172 325.686 67.6621C324.525 67.4334 323.33 67.3338 322.147 67.3338C318.499 67.3392 314.792 67.6973 311.204 68.3171C308.927 68.7105 306.173 70.0346 303.907 69.3155C299.96 68.0626 295.971 68.1242 292.226 69.9128C288.802 71.5484 286.203 74.6547 284.686 78.0111C284.457 78.5178 283.529 80.3826 283.266 81.6396C283.153 81.8967 283.045 82.1555 282.948 82.4181C282.672 83.1639 282.424 83.9228 282.194 84.6831C282.096 85.0075 281.848 85.7236 282.142 85.8621C281.673 86.7281 281.257 87.6207 280.91 88.5422C279.903 91.2221 278.801 94.1618 278.447 97.0022C278.316 98.054 278.311 99.1119 278.433 100.166C278.493 100.687 278.468 101.734 278.821 102.13C279.57 102.97 279.955 101.794 279.871 101.234C279.226 96.9629 280.471 92.9525 281.948 88.938C282.902 86.3421 284.471 83.9673 286.228 81.8165C287.65 80.0756 289.176 78.7046 291.125 77.5503C293.509 76.1389 296.058 74.9978 298.583 73.8532C300.244 73.1001 301.907 72.3672 303.614 71.7183C303.994 71.5739 304.591 71.2038 305.012 71.2023C305.902 71.1991 307.164 71.856 308.024 72.1004C310.852 72.9044 313.716 73.9338 316.639 74.3444C318.514 74.6081 320.27 74.3114 322.023 73.6868C322.202 73.6231 322.503 73.4591 322.871 73.2249C324.172 72.7242 325.404 72.0939 326.476 71.1848C327.094 70.661 327.654 69.984 328.165 69.3644C328.318 69.1791 328.386 68.9668 328.388 68.765C328.504 68.7044 328.581 68.6337 328.598 68.5512C328.726 67.9413 327.563 67.9301 326.818 67.9664Z" fill="#89C5CC"/>
<path fill-rule="evenodd" clip-rule="evenodd" d="M30.4773 118.802C29.7617 119.381 29.0597 119.973 28.3749 120.589C27.853 121.059 26.9294 121.621 26.742 122.332C26.5472 123.071 27.1621 123.763 27.6479 124.21C30.2165 126.573 33.1089 128.17 36.6682 128.436C42.1487 128.845 46.9183 127.446 51.6734 124.692C55.0135 122.758 57.2261 119.896 57.7093 116.033C61.6871 117.686 65.5344 119.964 68.8038 122.761C70.4169 124.141 71.8063 125.67 73.0915 127.365C73.9145 128.45 74.7107 129.554 75.4496 130.699C75.7707 131.197 76.0972 132.079 76.6275 132.366C77.25 132.703 78.0023 132.175 77.9714 131.483C77.9458 130.907 77.3237 130.239 77.033 129.768C76.5498 128.986 76.0596 128.209 75.5433 127.448C74.7078 126.217 73.8443 125.004 72.9025 123.851C70.7862 121.263 68.0932 119.124 65.3017 117.301C59.9463 113.802 54.0688 111.598 47.5525 111.411C43.5457 111.296 40.175 112.665 36.7486 114.71C34.6153 115.983 32.4131 117.234 30.4773 118.802Z" fill="#E9E9EF"/>
<path fill-rule="evenodd" clip-rule="evenodd" d="M82.4522 101.881C78.2767 97.5805 74.0868 93.334 69.4217 89.5476C66.6725 87.3164 63.775 85.2875 60.9373 83.1719C61.2649 83.4587 61.5859 83.7538 61.8993 84.0561C61.0136 83.4548 59.8541 83.115 58.9149 82.5584C57.8675 81.9377 56.8663 81.2276 55.8841 80.5118C53.9671 79.1149 52.0788 77.6914 50.1083 76.3674C47.9127 74.8924 45.6374 73.5294 43.4045 72.1099C41.5095 70.9053 39.5913 69.5867 37.5639 68.602C36.459 68.0652 35.3515 67.4289 34.242 66.8691C33.8707 66.6818 30.103 64.3027 30.1125 64.2955C30.3207 64.1386 32.2167 65.0294 32.5099 65.1493C33.3664 65.4991 34.1855 65.9176 35.009 66.3347C34.557 65.4432 34.1992 64.5065 34.0045 63.5206C33.9443 63.2162 33.4623 61.0007 33.7089 60.8149C33.8321 60.722 35.0342 64.6858 35.0957 65.0669C35.1458 65.3765 35.1384 65.8223 35.2398 66.1154C35.4033 66.5888 35.3951 66.4458 35.7555 66.7125C36.4161 67.2013 37.2929 67.5068 38.0078 67.9154C38.3933 68.1306 39.5869 68.984 40.3058 69.2273C42.4811 70.2838 44.686 71.9093 46.7529 73.2588C46.2105 72.2393 45.7976 71.1733 45.4966 70.0562C45.425 69.791 44.6525 67.4118 44.8399 67.2706C45.0508 67.1117 46.5228 70.7453 46.6099 71.0894C46.7719 71.7283 46.8055 72.4395 47.0083 73.0613C47.2309 73.7436 47.9255 73.9855 48.5515 74.3833C50.8548 75.8467 53.0789 77.4017 55.2661 79.028C57.6525 74.7838 54.9008 69.6586 52.5818 66.0975C50.9102 63.5311 48.6598 61.3307 46.2838 59.4097C43.1127 56.846 39.4846 54.7979 35.861 52.9245C31.6387 50.7416 27.0752 49.3891 22.3308 48.7642C19.8494 48.4374 17.3108 48.4465 14.8043 48.5513C13.5799 48.6024 12.4047 48.7646 11.2313 49.1639C10.7025 49.3441 10.1913 49.5712 9.69327 49.8255C9.31483 50.0187 8.39936 50.2226 8.18178 50.5105C6.39064 52.8417 5.47431 55.1648 5.61424 58.0943C5.74656 60.8674 6.62238 63.6419 7.81095 66.1155C9.13462 68.8699 10.8371 71.3698 13.0635 73.4679C14.7622 75.0688 16.6614 76.462 18.5481 77.8369C25.2582 82.7272 33.7656 86.9804 42.4565 85.8877C45.2697 85.5342 47.9455 84.5503 50.446 83.2134C51.0352 82.8984 51.6208 82.5797 52.177 82.2077C52.552 81.9571 53.5545 80.8271 53.9316 80.7861C54.4486 80.7298 55.5624 81.7814 56.0474 82.1015C59.7336 84.5348 63.3232 87.0999 66.8375 89.7687C70.5765 92.6083 74.1322 95.641 77.5831 98.8163C79.0508 100.167 80.5093 101.52 81.9345 102.916C82.2662 103.241 83.0775 104.437 83.6792 104.491C84.0597 104.526 84.3162 104.201 84.2618 103.849C84.1675 103.237 82.8797 102.321 82.4522 101.881Z" fill="#C1DEE2"/>
<path fill-rule="evenodd" clip-rule="evenodd" d="M322.434 85.1914C320.817 84.838 319.031 84.8651 317.384 84.8942C308.548 85.0144 299.871 89.1976 294.225 95.8817C289.417 101.572 288.095 108.647 287.146 115.798C287.052 116.508 287.011 117.214 286.958 117.926C286.947 118.078 286.93 118.214 286.911 118.343C286.538 118.677 286.342 119.066 286.563 119.494C285.74 121.294 285.044 123.14 284.447 125.044C282.689 130.649 280.901 136.361 282.003 142.254C282.26 139.011 282.801 135.695 283.449 132.504C283.486 132.321 283.526 132.14 283.568 131.959C283.572 131.939 283.576 131.92 283.581 131.901C283.81 130.924 284.108 129.977 284.47 129.044C284.474 129.034 284.477 129.024 284.481 129.014C284.529 128.891 284.58 128.769 284.63 128.647C284.734 128.394 284.841 128.142 284.954 127.891C284.992 127.805 285.028 127.719 285.064 127.632C285.591 126.339 285.814 124.883 286.286 123.546C286.399 123.242 286.517 122.939 286.641 122.637C286.649 122.62 286.656 122.602 286.663 122.584C286.998 121.773 287.368 120.972 287.759 120.18C287.971 120.02 288.085 119.624 288.268 119.264C288.306 119.193 288.602 118.72 288.69 118.447C288.92 118.002 289.15 117.557 289.381 117.112C289.374 117.115 289.368 117.117 289.361 117.12C289.593 116.693 289.825 116.268 290.056 115.845C290.107 115.752 290.158 115.659 290.209 115.565C290.292 115.417 290.375 115.268 290.458 115.12C291.232 113.735 292.052 112.378 292.905 111.038C293.209 110.559 293.935 109.873 294.075 109.336C294.08 109.316 294.081 109.298 294.084 109.278C295.933 106.681 298.062 104.285 300.615 102.387C300.307 102.721 299.651 103.853 299.477 104.077C298.947 104.763 298.371 105.402 297.792 106.049C296.756 107.207 295.745 108.402 294.847 109.666C293.203 111.977 291.786 114.409 290.446 116.89C290.433 116.905 290.419 116.919 290.407 116.934C289.733 117.764 289.309 119.019 288.825 119.968C290.743 119.08 292.865 118.501 294.834 117.712C296.798 116.925 298.708 116.049 300.553 115.02C303.004 113.653 305.547 112.109 307.863 110.362C310.517 108.716 312.747 106.45 314.716 104.072C317.045 101.258 319.18 98.42 320.5 95.0037C321.149 93.325 321.659 91.5745 321.961 89.8036C321.975 89.7263 321.991 89.6426 322.01 89.5556C322.319 88.944 322.596 88.3186 322.828 87.6788C323.197 86.6641 324.068 85.5479 322.434 85.1914Z" fill="#69A1AC"/>
<path fill-rule="evenodd" clip-rule="evenodd" d="M48.3707 97.0786C47.864 96.53 47.2949 96.035 46.6268 95.6819C46.4579 95.5928 45.1996 94.9949 45.1176 95.1261C44.9267 95.4316 48.2185 96.9035 48.3707 97.0786ZM54.3365 93.4138C54.3324 93.4369 54.7687 94.1773 54.8875 94.4049C55.1403 94.8888 55.3737 95.3823 55.5933 95.8766C55.2682 95.0035 54.9342 94.1937 54.3365 93.4138ZM23.8255 99.4401C23.4053 99.5754 22.9001 99.0421 23.4451 98.9107C23.8861 98.8052 23.8645 98.7804 24.0625 98.4251C24.2233 98.1367 24.3224 97.7848 24.4635 97.4821C24.7628 96.84 25.1023 96.2277 25.5191 95.6539C26.4122 94.4239 27.5005 93.364 28.721 92.4709C30.851 90.9123 33.2393 89.4878 35.7728 88.7721C39.8011 87.6342 44.3858 87.5638 48.4203 88.3528C50.919 88.8414 53.2026 89.6908 54.8618 91.7027C55.691 92.7081 56.342 93.886 56.6265 95.1831C56.7008 95.5221 56.6869 95.8991 56.7799 96.231C56.9228 96.7414 56.8597 96.6055 57.4566 96.7048C58.1084 96.8132 58.7596 96.9238 59.4106 97.0364C61.1152 97.3312 62.8298 97.6443 64.4907 98.1228C65.0374 98.2802 65.572 98.4726 66.0943 98.6962C66.4893 98.8651 68.0622 99.3955 68.2533 99.9087C68.5715 100.763 67.5055 100.375 67.1742 100.19C66.8841 100.027 66.5862 99.8747 66.284 99.7348C65.523 99.3826 64.7301 99.1102 63.9193 98.8934C63.0432 98.659 62.1491 98.484 61.2585 98.3089C60.4279 98.1456 59.5942 97.9971 58.7595 97.8552C58.2957 97.7762 57.8316 97.6996 57.3675 97.6229C57.2089 97.5967 56.9293 97.4595 56.9505 97.6656C55.9747 97.4775 54.9195 97.5046 53.9255 97.4527C52.7081 97.3893 51.4863 97.3372 50.2648 97.3753C49.3838 97.4028 48.5021 97.4606 47.6256 97.5789C47.1135 97.6481 46.6095 97.7493 46.107 97.8775C45.831 97.9479 44.7425 98.0972 44.5922 98.3378C44.6568 98.2344 45.858 98.3346 46.0109 98.3288C46.6225 98.3059 47.2293 98.2453 47.8385 98.1772C48.9692 98.0509 50.1004 97.9849 51.2346 97.9946C51.2303 98.1936 50.4555 98.5483 50.2664 98.6802C49.8424 98.9762 49.4362 99.299 49.0573 99.6531C48.3898 100.277 47.5906 101.049 47.1289 101.788C47.265 101.57 47.9362 101.287 48.1744 101.121C48.556 100.854 48.9299 100.57 49.2836 100.266C49.6102 99.9848 49.9149 99.6816 50.2145 99.3719C50.5142 99.062 50.9208 98.4177 51.3146 98.2113C51.3383 98.1989 51.51 98.3345 51.6075 98.2884C51.7057 98.2419 51.8282 98.0097 51.8531 98.0002C52.2197 97.8588 52.9157 98.0347 53.301 98.0526C54.3003 98.0985 55.2985 98.1588 56.2971 98.2138C56.6065 98.2308 56.8693 98.1604 56.9862 98.3886C57.1107 98.632 56.8825 99.2716 56.8176 99.5367C56.5769 100.521 56.1492 101.404 55.4761 102.167C54.2155 103.595 52.6611 104.548 50.9051 105.185C44.1791 107.625 37.0235 108.602 30.2995 106.064C27.5158 105.013 23.3235 103.135 23.8255 99.4401Z" fill="#89C5CC"/>
<path opacity="0.6" fill-rule="evenodd" clip-rule="evenodd" d="M331.79 214.402C336.366 245.378 225.396 265.582 129.882 251.482C34.368 237.382 -9.44941 182.32 36.1284 152.98C81.7061 123.641 327.215 183.427 331.79 214.402Z" fill="#E9E9EF"/>
<path d="M136.564 11.3804H68.7563C66.6613 11.3804 64.9629 13.0788 64.9629 15.1738V150.79C64.9629 152.885 66.6613 154.583 68.7563 154.583H136.564C138.659 154.583 140.358 152.885 140.358 150.79V15.1738C140.358 13.0788 138.659 11.3804 136.564 11.3804Z" fill="#F2F2F2"/>
<path d="M102.423 145.574C106.352 145.574 109.536 142.389 109.536 138.461C109.536 134.533 106.352 131.348 102.423 131.348C98.495 131.348 95.3105 134.533 95.3105 138.461C95.3105 142.389 98.495 145.574 102.423 145.574Z" fill="#E9E9EF"/>
<path d="M96.2589 20.864C96.7827 20.864 97.2073 20.4394 97.2073 19.9156C97.2073 19.3919 96.7827 18.9673 96.2589 18.9673C95.7351 18.9673 95.3105 19.3919 95.3105 19.9156C95.3105 20.4394 95.7351 20.864 96.2589 20.864Z" fill="#E9E9EF"/>
<path d="M108.588 18.9673H100.526C100.003 18.9673 99.5781 19.3919 99.5781 19.9156C99.5781 20.4394 100.003 20.864 100.526 20.864H108.588C109.111 20.864 109.536 20.4394 109.536 19.9156C109.536 19.3919 109.111 18.9673 108.588 18.9673Z" fill="#E9E9EF"/>
<path d="M131.823 24.6574H73.4983C72.4508 24.6574 71.6016 25.5066 71.6016 26.5542V48.3665C71.6016 49.4141 72.4508 50.2632 73.4983 50.2632H131.823C132.87 50.2632 133.719 49.4141 133.719 48.3665V26.5542C133.719 25.5066 132.87 24.6574 131.823 24.6574Z" fill="#E9E9EF"/>
<path d="M123.287 32.3392H91.5173C90.7316 32.3392 90.0947 32.9761 90.0947 33.7617V34.7575C90.0947 35.5432 90.7316 36.18 91.5173 36.18H123.287C124.073 36.18 124.71 35.5432 124.71 34.7575V33.7617C124.71 32.9761 124.073 32.3392 123.287 32.3392Z" fill="#E9E9EF"/>
<path d="M111.907 38.7406H91.5173C90.7316 38.7406 90.0947 39.3775 90.0947 40.1632V41.159C90.0947 41.9446 90.7316 42.5815 91.5173 42.5815H111.907C112.693 42.5815 113.33 41.9446 113.33 41.159V40.1632C113.33 39.3775 112.693 38.7406 111.907 38.7406Z" fill="#E9E9EF"/>
<path d="M81.5593 43.1505C84.7019 43.1505 87.2495 40.603 87.2495 37.4604C87.2495 34.3178 84.7019 31.7702 81.5593 31.7702C78.4167 31.7702 75.8691 34.3178 75.8691 37.4604C75.8691 40.603 78.4167 43.1505 81.5593 43.1505Z" fill="#C5CFD6"/>
<path d="M131.823 54.0567H73.4983C72.4508 54.0567 71.6016 54.9059 71.6016 55.9534V72.0756C71.6016 73.1231 72.4508 73.9723 73.4983 73.9723H131.823C132.87 73.9723 133.719 73.1231 133.719 72.0756V55.9534C133.719 54.9059 132.87 54.0567 131.823 54.0567Z" fill="#E9E9EF"/>
<path d="M123.287 60.0314H91.5173C90.7316 60.0314 90.0947 60.6683 90.0947 61.4539V61.5962C90.0947 62.3818 90.7316 63.0187 91.5173 63.0187H123.287C124.073 63.0187 124.71 62.3818 124.71 61.5962V61.4539C124.71 60.6683 124.073 60.0314 123.287 60.0314Z" fill="#E9E9EF"/>
<path d="M111.907 65.0103H91.5173C90.7316 65.0103 90.0947 65.6472 90.0947 66.4328V66.5751C90.0947 67.3607 90.7316 67.9976 91.5173 67.9976H111.907C112.693 67.9976 113.33 67.3607 113.33 66.5751V66.4328C113.33 65.6472 112.693 65.0103 111.907 65.0103Z" fill="#E9E9EF"/>
<path d="M81.5593 69.7047C84.7019 69.7047 87.2495 67.1571 87.2495 64.0145C87.2495 60.8719 84.7019 58.3243 81.5593 58.3243C78.4167 58.3243 75.8691 60.8719 75.8691 64.0145C75.8691 67.1571 78.4167 69.7047 81.5593 69.7047Z" fill="#C5CFD6"/>
<path d="M131.823 77.7658H73.4983C72.4508 77.7658 71.6016 78.615 71.6016 79.6625V95.7847C71.6016 96.8322 72.4508 97.6814 73.4983 97.6814H131.823C132.87 97.6814 133.719 96.8322 133.719 95.7847V79.6625C133.719 78.615 132.87 77.7658 131.823 77.7658Z" fill="#E9E9EF"/>
<path d="M123.287 83.7405H91.5173C90.7316 83.7405 90.0947 84.3774 90.0947 85.163V85.3053C90.0947 86.0909 90.7316 86.7278 91.5173 86.7278H123.287C124.073 86.7278 124.71 86.0909 124.71 85.3053V85.163C124.71 84.3774 124.073 83.7405 123.287 83.7405Z" fill="#E9E9EF"/>
<path d="M111.907 88.7194H91.5173C90.7316 88.7194 90.0947 89.3563 90.0947 90.1419V90.2842C90.0947 91.0698 90.7316 91.7067 91.5173 91.7067H111.907C112.693 91.7067 113.33 91.0698 113.33 90.2842V90.1419C113.33 89.3563 112.693 88.7194 111.907 88.7194Z" fill="#E9E9EF"/>
<path d="M81.5593 93.4138C84.7019 93.4138 87.2495 90.8662 87.2495 87.7236C87.2495 84.581 84.7019 82.0334 81.5593 82.0334C78.4167 82.0334 75.8691 84.581 75.8691 87.7236C75.8691 90.8662 78.4167 93.4138 81.5593 93.4138Z" fill="#AFB9C5"/>
<path d="M131.823 101.475H73.4983C72.4508 101.475 71.6016 102.324 71.6016 103.372V119.494C71.6016 120.541 72.4508 121.39 73.4983 121.39H131.823C132.87 121.39 133.719 120.541 133.719 119.494V103.372C133.719 102.324 132.87 101.475 131.823 101.475Z" fill="#E9E9EF"/>
<path d="M123.287 107.45H91.5173C90.7316 107.45 90.0947 108.086 90.0947 108.872V109.014C90.0947 109.8 90.7316 110.437 91.5173 110.437H123.287C124.073 110.437 124.71 109.8 124.71 109.014V108.872C124.71 108.086 124.073 107.45 123.287 107.45Z" fill="#E9E9EF"/>
<path d="M111.907 112.428H91.5173C90.7316 112.428 90.0947 113.065 90.0947 113.851V113.993C90.0947 114.779 90.7316 115.416 91.5173 115.416H111.907C112.693 115.416 113.33 114.779 113.33 113.993V113.851C113.33 113.065 112.693 112.428 111.907 112.428Z" fill="#E9E9EF"/>
<path d="M81.5593 117.123C84.7019 117.123 87.2495 114.575 87.2495 111.433C87.2495 108.29 84.7019 105.742 81.5593 105.742C78.4167 105.742 75.8691 108.29 75.8691 111.433C75.8691 114.575 78.4167 117.123 81.5593 117.123Z" fill="#C5CFD6"/>
<path fill-rule="evenodd" clip-rule="evenodd" d="M79.2548 127.081C78.6266 127.081 78.0003 127.093 77.3729 127.126C76.8946 127.151 76.1638 127.052 75.7591 127.35C75.3386 127.659 75.3676 128.293 75.4333 128.741C75.7805 131.108 76.6279 133.207 78.4008 134.884C81.1305 137.466 84.2598 138.778 87.9628 139.362C90.564 139.772 92.9653 139.203 94.8801 137.353C96.2792 139.949 97.3406 142.823 97.8731 145.723C98.1358 147.154 98.2161 148.568 98.1699 150.025C98.1401 150.959 98.0886 151.89 97.9886 152.819C97.9452 153.222 97.7394 153.833 97.8975 154.215C98.0829 154.663 98.7083 154.706 98.989 154.324C99.2227 154.006 99.1798 153.382 99.2278 153.006C99.3073 152.381 99.381 151.755 99.4337 151.127C99.5193 150.111 99.5827 149.092 99.578 148.072C99.5673 145.78 99.0578 143.479 98.3607 141.304C97.0235 137.13 94.8539 133.42 91.4795 130.51C89.4047 128.72 87.0301 127.995 84.336 127.606C82.6587 127.364 80.954 127.081 79.2548 127.081Z" fill="#89C5CC"/>
<path fill-rule="evenodd" clip-rule="evenodd" d="M88.9427 143.677C82.1625 143.677 77.5959 149.142 75.4368 154.821C74.6229 156.962 74.4322 159.313 74.1185 161.56C74.0178 162.282 74.0551 163.381 73.7623 164.024C73.656 164.257 73.4124 164.341 73.5289 164.658C73.5994 164.85 73.7377 164.968 73.9455 165.006C74.372 165.085 74.975 164.62 75.3407 164.437C78.3735 162.916 80.3662 160.564 81.9918 157.687C82.9995 155.903 84.0219 154.052 84.6205 152.094C84.9861 150.898 85.199 149.638 85.324 148.397C85.3732 147.908 85.4209 147.408 85.418 146.916C85.4151 146.429 85.1881 146.171 85.025 145.746C87.2874 144.89 89.841 144.656 92.1327 145.544C94.2523 146.365 96.013 147.951 96.9989 149.944C97.2551 150.462 97.4526 151.008 97.5965 151.565C97.6907 151.93 97.6953 152.404 97.8698 152.734C98.2931 153.534 99.1836 152.999 99.0981 152.254C98.8597 150.177 97.6712 148.091 96.1521 146.647C94.2361 144.825 91.6391 143.677 88.9427 143.677Z" fill="#89C5CC"/>
<path d="M167.86 23.7091H100.052C97.9572 23.7091 96.2588 25.4075 96.2588 27.5025V163.118C96.2588 165.214 97.9572 166.912 100.052 166.912H167.86C169.955 166.912 171.654 165.214 171.654 163.118V27.5025C171.654 25.4075 169.955 23.7091 167.86 23.7091Z" fill="#E9E9EF"/>
<path d="M133.719 157.902C137.647 157.902 140.832 154.718 140.832 150.79C140.832 146.861 137.647 143.677 133.719 143.677C129.791 143.677 126.606 146.861 126.606 150.79C126.606 154.718 129.791 157.902 133.719 157.902Z" fill="#E9E9EF"/>
<path d="M127.555 33.1927C128.079 33.1927 128.503 32.7681 128.503 32.2444C128.503 31.7206 128.079 31.296 127.555 31.296C127.031 31.296 126.606 31.7206 126.606 32.2444C126.606 32.7681 127.031 33.1927 127.555 33.1927Z" fill="#E9E9EF"/>
<path d="M139.883 31.296H131.822C131.299 31.296 130.874 31.7206 130.874 32.2444C130.874 32.7681 131.299 33.1927 131.822 33.1927H139.883C140.407 33.1927 140.832 32.7681 140.832 32.2444C140.832 31.7206 140.407 31.296 139.883 31.296Z" fill="#E9E9EF"/>
<path d="M163.119 36.9861H104.794C103.747 36.9861 102.897 37.8353 102.897 38.8829V60.6952C102.897 61.7428 103.747 62.5919 104.794 62.5919H163.119C164.166 62.5919 165.015 61.7428 165.015 60.6952V38.8829C165.015 37.8353 164.166 36.9861 163.119 36.9861Z" fill="#E9E9EF"/>
<path d="M140.358 44.6679H108.588C107.802 44.6679 107.165 45.3048 107.165 46.0905V47.0862C107.165 47.8719 107.802 48.5088 108.588 48.5088H140.358C141.143 48.5088 141.78 47.8719 141.78 47.0862V46.0905C141.78 45.3048 141.143 44.6679 140.358 44.6679Z" fill="#E9E9EF"/>
<path d="M128.977 51.0694H108.588C107.802 51.0694 107.165 51.7063 107.165 52.4919V53.4877C107.165 54.2733 107.802 54.9102 108.588 54.9102H128.977C129.763 54.9102 130.4 54.2733 130.4 53.4877V52.4919C130.4 51.7063 129.763 51.0694 128.977 51.0694Z" fill="#E9E9EF"/>
<path d="M158.377 53.1083C160.21 53.1083 161.696 51.6222 161.696 49.7891C161.696 47.9559 160.21 46.4698 158.377 46.4698C156.544 46.4698 155.058 47.9559 155.058 49.7891C155.058 51.6222 156.544 53.1083 158.377 53.1083Z" fill="#E9E9EF"/>
<path d="M158.377 51.2116C159.162 51.2116 159.799 50.5747 159.799 49.7891C159.799 49.0034 159.162 48.3665 158.377 48.3665C157.591 48.3665 156.954 49.0034 156.954 49.7891C156.954 50.5747 157.591 51.2116 158.377 51.2116Z" fill="#F2F2F2"/>
<path d="M163.119 66.3854H104.794C103.747 66.3854 102.897 67.2346 102.897 68.2822V84.4043C102.897 85.4519 103.747 86.3011 104.794 86.3011H163.119C164.166 86.3011 165.015 85.4519 165.015 84.4043V68.2822C165.015 67.2346 164.166 66.3854 163.119 66.3854Z" fill="#E9E9EF"/>
<path d="M154.583 72.3601H122.813C122.028 72.3601 121.391 72.997 121.391 73.7827V73.9249C121.391 74.7106 122.028 75.3474 122.813 75.3474H154.583C155.369 75.3474 156.006 74.7106 156.006 73.9249V73.7827C156.006 72.997 155.369 72.3601 154.583 72.3601Z" fill="#E9E9EF"/>
<path d="M143.203 77.339H122.813C122.028 77.339 121.391 77.9759 121.391 78.7616V78.9038C121.391 79.6895 122.028 80.3264 122.813 80.3264H143.203C143.989 80.3264 144.626 79.6895 144.626 78.9038V78.7616C144.626 77.9759 143.989 77.339 143.203 77.339Z" fill="#E9E9EF"/>
<path d="M112.855 82.0334C115.998 82.0334 118.545 79.4858 118.545 76.3432C118.545 73.2006 115.998 70.653 112.855 70.653C109.713 70.653 107.165 73.2006 107.165 76.3432C107.165 79.4858 109.713 82.0334 112.855 82.0334Z" fill="#C5CFD6"/>
<path d="M163.119 90.0945H104.794C103.747 90.0945 102.897 90.9437 102.897 91.9912V108.113C102.897 109.161 103.747 110.01 104.794 110.01H163.119C164.166 110.01 165.015 109.161 165.015 108.113V91.9912C165.015 90.9437 164.166 90.0945 163.119 90.0945Z" fill="#E9E9EF"/>
<path d="M140.358 96.0692H108.588C107.802 96.0692 107.165 96.7061 107.165 97.4917V97.634C107.165 98.4196 107.802 99.0565 108.588 99.0565H140.358C141.143 99.0565 141.78 98.4196 141.78 97.634V97.4917C141.78 96.7061 141.143 96.0692 140.358 96.0692Z" fill="#E9E9EF"/>
<path d="M128.977 101.048H108.588C107.802 101.048 107.165 101.685 107.165 102.471V102.613C107.165 103.399 107.802 104.035 108.588 104.035H128.977C129.763 104.035 130.4 103.399 130.4 102.613V102.471C130.4 101.685 129.763 101.048 128.977 101.048Z" fill="#AFB9C5"/>
<path d="M158.377 103.372C160.21 103.372 161.696 101.885 161.696 100.052C161.696 98.2191 160.21 96.733 158.377 96.733C156.544 96.733 155.058 98.2191 155.058 100.052C155.058 101.885 156.544 103.372 158.377 103.372Z" fill="#E9E9EF"/>
<path d="M158.377 101.475C159.162 101.475 159.799 100.838 159.799 100.052C159.799 99.2667 159.162 98.6298 158.377 98.6298C157.591 98.6298 156.954 99.2667 156.954 100.052C156.954 100.838 157.591 101.475 158.377 101.475Z" fill="#F2F2F2"/>
<path d="M163.119 113.804H104.794C103.747 113.804 102.897 114.653 102.897 115.7V131.822C102.897 132.87 103.747 133.719 104.794 133.719H163.119C164.166 133.719 165.015 132.87 165.015 131.822V115.7C165.015 114.653 164.166 113.804 163.119 113.804Z" fill="#E9E9EF"/>
<path d="M154.583 119.778H122.813C122.028 119.778 121.391 120.415 121.391 121.201V121.343C121.391 122.129 122.028 122.766 122.813 122.766H154.583C155.369 122.766 156.006 122.129 156.006 121.343V121.201C156.006 120.415 155.369 119.778 154.583 119.778Z" fill="#E9E9EF"/>
<path d="M143.203 124.757H122.813C122.028 124.757 121.391 125.394 121.391 126.18V126.322C121.391 127.108 122.028 127.745 122.813 127.745H143.203C143.989 127.745 144.626 127.108 144.626 126.322V126.18C144.626 125.394 143.989 124.757 143.203 124.757Z" fill="#E9E9EF"/>
<path d="M112.855 129.452C115.998 129.452 118.545 126.904 118.545 123.761C118.545 120.619 115.998 118.071 112.855 118.071C109.713 118.071 107.165 120.619 107.165 123.761C107.165 126.904 109.713 129.452 112.855 129.452Z" fill="#C5CFD6"/>
<path d="M282.612 35.5636H131.348C129.253 35.5636 127.555 37.262 127.555 39.3571V195.837C127.555 197.932 129.253 199.63 131.348 199.63H282.612C284.707 199.63 286.406 197.932 286.406 195.837V39.3571C286.406 37.262 284.707 35.5636 282.612 35.5636Z" fill="#F2F2F2"/>
<path d="M275.025 55.9534H249.419C247.324 55.9534 245.626 57.6518 245.626 59.7469V90.5687C245.626 92.6637 247.324 94.3621 249.419 94.3621H275.025C277.12 94.3621 278.819 92.6637 278.819 90.5687V59.7469C278.819 57.6518 277.12 55.9534 275.025 55.9534Z" fill="#E9E9EF"/>
<path d="M262.223 78.24C266.413 78.24 269.81 74.8432 269.81 70.6531C269.81 66.4629 266.413 63.0662 262.223 63.0662C258.033 63.0662 254.636 66.4629 254.636 70.6531C254.636 74.8432 258.033 78.24 262.223 78.24Z" fill="#E9E9EF"/>
<path d="M272.654 80.1367H251.79C251.005 80.1367 250.368 80.7736 250.368 81.5592C250.368 82.3449 251.005 82.9818 251.79 82.9818H272.654C273.44 82.9818 274.077 82.3449 274.077 81.5592C274.077 80.7736 273.44 80.1367 272.654 80.1367Z" fill="#E9E9EF"/>
<path d="M268.861 84.8785H255.584C254.798 84.8785 254.161 85.5154 254.161 86.3011C254.161 87.0867 254.798 87.7236 255.584 87.7236H268.861C269.646 87.7236 270.283 87.0867 270.283 86.3011C270.283 85.5154 269.646 84.8785 268.861 84.8785Z" fill="#E9E9EF"/>
<path fill-rule="evenodd" clip-rule="evenodd" d="M131.348 35.5636H282.612C284.707 35.5636 286.406 37.262 286.406 39.3571V48.3665H127.555V39.3571C127.555 37.262 129.253 35.5636 131.348 35.5636Z" fill="#C5CFD6"/>
<path d="M133.719 44.0989C134.767 44.0989 135.616 43.2497 135.616 42.2022C135.616 41.1546 134.767 40.3055 133.719 40.3055C132.671 40.3055 131.822 41.1546 131.822 42.2022C131.822 43.2497 132.671 44.0989 133.719 44.0989Z" fill="#F2F2F2"/>
<path d="M139.409 44.0989C140.457 44.0989 141.306 43.2497 141.306 42.2022C141.306 41.1546 140.457 40.3055 139.409 40.3055C138.362 40.3055 137.513 41.1546 137.513 42.2022C137.513 43.2497 138.362 44.0989 139.409 44.0989Z" fill="#F2F2F2"/>
<path d="M145.099 44.0989C146.147 44.0989 146.996 43.2497 146.996 42.2022C146.996 41.1546 146.147 40.3055 145.099 40.3055C144.052 40.3055 143.203 41.1546 143.203 42.2022C143.203 43.2497 144.052 44.0989 145.099 44.0989Z" fill="#F2F2F2"/>
<path d="M275.025 98.1556H249.419C247.324 98.1556 245.626 99.854 245.626 101.949V186.353C245.626 188.448 247.324 190.147 249.419 190.147H275.025C277.12 190.147 278.819 188.448 278.819 186.353V101.949C278.819 99.854 277.12 98.1556 275.025 98.1556Z" fill="#E9E9EF"/>
<path d="M268.387 106.691H256.058C255.01 106.691 254.161 107.54 254.161 108.588V117.123C254.161 118.17 255.01 119.02 256.058 119.02H268.387C269.434 119.02 270.283 118.17 270.283 117.123V108.588C270.283 107.54 269.434 106.691 268.387 106.691Z" fill="#E9E9EF"/>
<path d="M268.387 122.813H256.058C255.01 122.813 254.161 123.662 254.161 124.71V132.771C254.161 133.818 255.01 134.668 256.058 134.668H268.387C269.434 134.668 270.283 133.818 270.283 132.771V124.71C270.283 123.662 269.434 122.813 268.387 122.813Z" fill="#AFB9C5"/>
<path d="M268.387 138.461H256.058C255.01 138.461 254.161 139.31 254.161 140.358V148.419C254.161 149.466 255.01 150.316 256.058 150.316H268.387C269.434 150.316 270.283 149.466 270.283 148.419V140.358C270.283 139.31 269.434 138.461 268.387 138.461Z" fill="#E9E9EF"/>
<path d="M268.387 169.757H256.058C255.01 169.757 254.161 170.606 254.161 171.654V179.715C254.161 180.762 255.01 181.612 256.058 181.612H268.387C269.434 181.612 270.283 180.762 270.283 179.715V171.654C270.283 170.606 269.434 169.757 268.387 169.757Z" fill="#E9E9EF"/>
<path d="M268.387 154.109H256.058C255.01 154.109 254.161 154.958 254.161 156.006V164.067C254.161 165.114 255.01 165.964 256.058 165.964H268.387C269.434 165.964 270.283 165.114 270.283 164.067V156.006C270.283 154.958 269.434 154.109 268.387 154.109Z" fill="#C5CFD6"/>
<path d="M239.936 56.4276H137.038C135.991 56.4276 135.142 57.2768 135.142 58.3243V76.8174C135.142 77.865 135.991 78.7141 137.038 78.7141H239.936C240.983 78.7141 241.832 77.865 241.832 76.8174V58.3243C241.832 57.2768 240.983 56.4276 239.936 56.4276Z" fill="#E9E9EF"/>
<path d="M217.175 63.1136H140.832C140.046 63.1136 139.409 63.7505 139.409 64.5361V65.034C139.409 65.8197 140.046 66.4566 140.832 66.4566H217.175C217.961 66.4566 218.598 65.8197 218.598 65.034V64.5361C218.598 63.7505 217.961 63.1136 217.175 63.1136Z" fill="#E9E9EF"/>
<path d="M191.14 68.6852H140.832C140.046 68.6852 139.409 69.3221 139.409 70.1078V70.6056C139.409 71.3913 140.046 72.0282 140.832 72.0282H191.14C191.926 72.0282 192.563 71.3913 192.563 70.6056V70.1078C192.563 69.3221 191.926 68.6852 191.14 68.6852Z" fill="#E9E9EF"/>
<path d="M230.431 70.8902C232.264 70.8902 233.75 69.4041 233.75 67.5709C233.75 65.7377 232.264 64.2516 230.431 64.2516C228.597 64.2516 227.111 65.7377 227.111 67.5709C227.111 69.4041 228.597 70.8902 230.431 70.8902Z" fill="#E9E9EF"/>
<path d="M230.43 68.9934C231.216 68.9934 231.853 68.3565 231.853 67.5709C231.853 66.7852 231.216 66.1483 230.43 66.1483C229.645 66.1483 229.008 66.7852 229.008 67.5709C229.008 68.3565 229.645 68.9934 230.43 68.9934Z" fill="#F2F2F2"/>
<path d="M239.936 82.5076H137.038C135.991 82.5076 135.142 83.3568 135.142 84.4043V99.104C135.142 100.151 135.991 101.001 137.038 101.001H239.936C240.983 101.001 241.832 100.151 241.832 99.104V84.4043C241.832 83.3568 240.983 82.5076 239.936 82.5076Z" fill="#E9E9EF"/>
<path d="M217.211 88.0555H140.796C140.03 88.0555 139.409 88.6765 139.409 89.4425C139.409 90.2085 140.03 90.8295 140.796 90.8295H217.211C217.977 90.8295 218.598 90.2085 218.598 89.4425C218.598 88.6765 217.977 88.0555 217.211 88.0555Z" fill="#E9E9EF"/>
<path d="M191.176 92.6788H140.796C140.03 92.6788 139.409 93.2998 139.409 94.0658C139.409 94.8318 140.03 95.4528 140.796 95.4528H191.176C191.942 95.4528 192.563 94.8318 192.563 94.0658C192.563 93.2998 191.942 92.6788 191.176 92.6788Z" fill="#E9E9EF"/>
<path d="M230.431 95.0734C232.264 95.0734 233.75 93.5873 233.75 91.7541C233.75 89.921 232.264 88.4349 230.431 88.4349C228.597 88.4349 227.111 89.921 227.111 91.7541C227.111 93.5873 228.597 95.0734 230.431 95.0734Z" fill="#E9E9EF"/>
<path d="M230.43 93.1767C231.216 93.1767 231.853 92.5398 231.853 91.7541C231.853 90.9685 231.216 90.3316 230.43 90.3316C229.645 90.3316 229.008 90.9685 229.008 91.7541C229.008 92.5398 229.645 93.1767 230.43 93.1767Z" fill="#F2F2F2"/>
<path d="M239.936 104.794H137.038C135.991 104.794 135.142 105.643 135.142 106.691V121.39C135.142 122.438 135.991 123.287 137.038 123.287H239.936C240.983 123.287 241.832 122.438 241.832 121.39V106.691C241.832 105.643 240.983 104.794 239.936 104.794Z" fill="#E9E9EF"/>
<path d="M217.211 110.342H140.796C140.03 110.342 139.409 110.963 139.409 111.729C139.409 112.495 140.03 113.116 140.796 113.116H217.211C217.977 113.116 218.598 112.495 218.598 111.729C218.598 110.963 217.977 110.342 217.211 110.342Z" fill="#E9E9EF"/>
<path d="M191.176 114.965H140.796C140.03 114.965 139.409 115.586 139.409 116.352C139.409 117.118 140.03 117.739 140.796 117.739H191.176C191.942 117.739 192.563 117.118 192.563 116.352C192.563 115.586 191.942 114.965 191.176 114.965Z" fill="#E9E9EF"/>
<path d="M230.431 117.36C232.264 117.36 233.75 115.874 233.75 114.041C233.75 112.207 232.264 110.721 230.431 110.721C228.597 110.721 227.111 112.207 227.111 114.041C227.111 115.874 228.597 117.36 230.431 117.36Z" fill="#E9E9EF"/>
<path d="M230.43 115.463C231.216 115.463 231.853 114.826 231.853 114.041C231.853 113.255 231.216 112.618 230.43 112.618C229.645 112.618 229.008 113.255 229.008 114.041C229.008 114.826 229.645 115.463 230.43 115.463Z" fill="#AFB9C5"/>
<path d="M239.936 171.654H137.038C135.991 171.654 135.142 172.503 135.142 173.55V188.25C135.142 189.298 135.991 190.147 137.038 190.147H239.936C240.983 190.147 241.832 189.298 241.832 188.25V173.55C241.832 172.503 240.983 171.654 239.936 171.654Z" fill="#E9E9EF"/>
<path d="M217.211 177.202H140.796C140.03 177.202 139.409 177.823 139.409 178.589C139.409 179.355 140.03 179.976 140.796 179.976H217.211C217.977 179.976 218.598 179.355 218.598 178.589C218.598 177.823 217.977 177.202 217.211 177.202Z" fill="#E9E9EF"/>
<path d="M191.176 181.825H140.796C140.03 181.825 139.409 182.446 139.409 183.212C139.409 183.978 140.03 184.599 140.796 184.599H191.176C191.942 184.599 192.563 183.978 192.563 183.212C192.563 182.446 191.942 181.825 191.176 181.825Z" fill="#E9E9EF"/>
<path d="M230.431 184.22C232.264 184.22 233.75 182.733 233.75 180.9C233.75 179.067 232.264 177.581 230.431 177.581C228.597 177.581 227.111 179.067 227.111 180.9C227.111 182.733 228.597 184.22 230.431 184.22Z" fill="#E9E9EF"/>
<path d="M230.43 182.323C231.216 182.323 231.853 181.686 231.853 180.9C231.853 180.115 231.216 179.478 230.43 179.478C229.645 179.478 229.008 180.115 229.008 180.9C229.008 181.686 229.645 182.323 230.43 182.323Z" fill="#F2F2F2"/>
<path d="M239.936 149.367H137.038C135.991 149.367 135.142 150.216 135.142 151.264V165.964C135.142 167.011 135.991 167.86 137.038 167.86H239.936C240.983 167.86 241.832 167.011 241.832 165.964V151.264C241.832 150.216 240.983 149.367 239.936 149.367Z" fill="#E9E9EF"/>
<path d="M217.211 154.915H140.796C140.03 154.915 139.409 155.536 139.409 156.302C139.409 157.068 140.03 157.689 140.796 157.689H217.211C217.977 157.689 218.598 157.068 218.598 156.302C218.598 155.536 217.977 154.915 217.211 154.915Z" fill="#E9E9EF"/>
<path d="M191.176 159.538H140.796C140.03 159.538 139.409 160.159 139.409 160.925C139.409 161.691 140.03 162.312 140.796 162.312H191.176C191.942 162.312 192.563 161.691 192.563 160.925C192.563 160.159 191.942 159.538 191.176 159.538Z" fill="#E9E9EF"/>
<path d="M230.431 161.933C232.264 161.933 233.75 160.447 233.75 158.614C233.75 156.781 232.264 155.294 230.431 155.294C228.597 155.294 227.111 156.781 227.111 158.614C227.111 160.447 228.597 161.933 230.431 161.933Z" fill="#E9E9EF"/>
<path d="M230.43 160.036C231.216 160.036 231.853 159.399 231.853 158.614C231.853 157.828 231.216 157.191 230.43 157.191C229.645 157.191 229.008 157.828 229.008 158.614C229.008 159.399 229.645 160.036 230.43 160.036Z" fill="#F2F2F2"/>
<path d="M239.936 127.081H137.038C135.991 127.081 135.142 127.93 135.142 128.977V143.677C135.142 144.725 135.991 145.574 137.038 145.574H239.936C240.983 145.574 241.832 144.725 241.832 143.677V128.977C241.832 127.93 240.983 127.081 239.936 127.081Z" fill="#E9E9EF"/>
<path d="M217.211 132.629H140.796C140.03 132.629 139.409 133.25 139.409 134.016C139.409 134.782 140.03 135.403 140.796 135.403H217.211C217.977 135.403 218.598 134.782 218.598 134.016C218.598 133.25 217.977 132.629 217.211 132.629Z" fill="#E9E9EF"/>
<path d="M191.176 137.252H140.796C140.03 137.252 139.409 137.873 139.409 138.639C139.409 139.405 140.03 140.026 140.796 140.026H191.176C191.942 140.026 192.563 139.405 192.563 138.639C192.563 137.873 191.942 137.252 191.176 137.252Z" fill="#E9E9EF"/>
<path d="M230.431 139.646C232.264 139.646 233.75 138.16 233.75 136.327C233.75 134.494 232.264 133.008 230.431 133.008C228.597 133.008 227.111 134.494 227.111 136.327C227.111 138.16 228.597 139.646 230.431 139.646Z" fill="#E9E9EF"/>
<path d="M230.43 137.75C231.216 137.75 231.853 137.113 231.853 136.327C231.853 135.542 231.216 134.905 230.43 134.905C229.645 134.905 229.008 135.542 229.008 136.327C229.008 137.113 229.645 137.75 230.43 137.75Z" fill="#F2F2F2"/>
<path fill-rule="evenodd" clip-rule="evenodd" d="M325.756 116.353C323.885 115.084 321.398 114.752 319.16 114.752C310.418 114.752 302.201 117.995 295.103 122.828C291.213 125.476 287.733 128.848 284.661 132.359C282.888 134.386 281.307 136.579 280.188 139.017C279.432 140.663 278.914 142.378 278.563 144.147C278.134 146.303 277.794 148.502 277.64 150.693C277.58 151.556 277.078 156.136 278.513 156.213C278.505 156.326 278.503 156.434 278.512 156.53C275.396 161.402 273.471 167.111 271.686 172.524C270.133 177.234 268.749 181.984 267.851 186.857C266.668 193.273 265.891 199.785 265.522 206.292C265.442 207.691 265.388 209.09 265.341 210.491C265.301 211.685 265.261 212.88 265.222 214.074C265.178 215.413 264.942 216.954 265.155 218.285C265.34 219.444 266.344 219.268 266.388 218.115C266.441 216.722 266.433 215.327 266.494 213.933C266.575 212.083 266.658 210.233 266.749 208.384C267.379 195.538 269.743 182.88 274.106 170.745C275.871 165.835 277.895 161.186 280.495 156.643C282.781 152.649 285.531 148.783 288.342 145.181C291.074 141.682 293.915 138.263 297.262 135.298C299.979 132.892 302.967 130.796 306.038 128.846C309.94 126.369 313.834 123.952 318.06 122.05C320.256 121.062 322.495 120.177 324.708 119.228C325.107 119.058 325.534 118.892 325.917 118.695C327.195 118.036 326.774 117.043 325.756 116.353Z" fill="#C1DEE2"/>
<path fill-rule="evenodd" clip-rule="evenodd" d="M290.587 161.222C294.132 161.222 297.287 161.682 300.554 163.091C303.374 164.308 305.944 165.917 308.439 167.67C311.949 170.135 314.713 173.004 316.649 176.806C317.805 179.077 318.653 182.29 317.876 184.767C316.962 187.685 314.451 190.118 311.143 189.604C309.098 189.286 307.223 187.932 305.669 186.658C303.81 185.134 302.321 183.301 301.092 181.265C299.087 177.945 297.909 174.191 296.206 170.721C295.398 169.074 294.617 167.416 293.649 165.851C293.17 165.076 292.66 164.308 291.933 163.732C291.544 163.424 289.904 162.891 290.531 162.199C281.336 162.32 273.191 169.381 271.426 178.122C271.262 178.937 271.133 179.758 270.997 180.578C270.912 181.095 270.946 183.004 270.484 183.335C269.463 184.064 269.892 181.848 269.936 181.529C270.049 180.705 270.17 179.881 270.296 179.058C270.986 174.585 272.977 170.426 276.298 167.236C280.096 163.588 285.221 161.222 290.587 161.222Z" fill="#89C5CC"/>
<path fill-rule="evenodd" clip-rule="evenodd" d="M35.06 150.191C43.9113 165.04 54.2203 179.418 60.4112 195.653C60.1617 193.74 59.8972 191.828 59.6011 189.919C58.0302 179.8 56.0779 169.754 54.0263 159.721C52.9816 154.612 51.8766 149.522 50.7433 144.433C50.1338 141.699 49.5317 138.964 48.9096 136.233C48.7589 135.571 48.6295 134.416 48.4408 133.245C54.4574 152.988 60.2594 172.747 64.5033 192.965C65.0601 195.618 65.5342 198.267 65.9226 200.911C66.0554 200.308 66.1861 199.704 66.3291 199.103C68.0463 191.892 70.6221 184.738 73.6891 177.996C75.1553 174.771 76.8394 171.617 78.8224 168.679C80.0589 166.847 82.9749 164.669 84.1029 162.793C77.9339 174.108 75.7064 188.265 72.1445 200.566C71.275 203.568 70.4002 206.565 69.5431 209.567C74.9147 198.795 83.2489 189.944 94.8363 186.108C80.8102 195.376 72.3971 211.605 66.7279 228.205C66.7092 228.401 66.687 228.598 66.6678 228.795C68.336 225.629 70.4374 222.766 73.2855 220.76C79.3812 216.466 86.1432 217.717 92.0562 221.4C87.4155 218.45 79.0284 221.136 75.1237 224.135C72.3283 226.281 69.9394 229.16 67.8648 231.969C67.3677 232.643 66.6896 233.428 65.9731 234.267C64.9686 240.787 63.3317 247.263 61.0141 253.687C61.3966 251.843 61.1201 248.894 61.2261 247.52C61.2377 247.371 61.247 247.222 61.2585 247.074C60.9062 248.48 60.5659 249.871 60.2382 251.239C60.8896 248.628 61.2436 245.903 61.52 243.149C61.5912 241.966 61.6606 240.782 61.734 239.599C61.7107 237.353 61.6182 235.099 61.4618 232.84C60.907 230.646 60.2859 228.575 59.7737 226.854C57.9253 220.642 55.2157 214.69 51.8806 209.138C48.8378 204.072 45.1954 199.482 40.9906 195.332C38.7238 193.095 36.3515 190.965 34.0126 188.805C33.1668 188.024 31.6551 186.104 30.3477 185.103C39.8695 190.352 49.67 196.032 56.6162 204.49C55.8018 201.362 54.9173 198.28 53.9817 195.258C49.2349 179.93 43.2413 164.044 35.06 150.191Z" fill="#E9E9EF"/>
<path fill-rule="evenodd" clip-rule="evenodd" d="M44.5732 234.246C44.5732 251.268 45.9213 265.067 64.0147 265.067C82.1081 265.067 83.4561 251.268 83.4561 234.246" fill="#C5CFD6"/>
<path d="M248.945 16.5963C248.945 15.8107 248.308 15.1738 247.523 15.1738C246.737 15.1738 246.1 15.8107 246.1 16.5963V25.6058C246.1 26.3914 246.737 27.0283 247.523 27.0283C248.308 27.0283 248.945 26.3914 248.945 25.6058V16.5963Z" fill="#E9E9EF"/>
<path d="M255.584 9.00946C255.584 8.22381 254.947 7.58691 254.161 7.58691C253.376 7.58691 252.739 8.22381 252.739 9.00946V25.6058C252.739 26.3915 253.376 27.0284 254.161 27.0284C254.947 27.0284 255.584 26.3915 255.584 25.6058V9.00946Z" fill="#E9E9EF"/>
<path d="M262.223 5.216C262.223 4.43035 261.586 3.79346 260.8 3.79346C260.014 3.79346 259.377 4.43035 259.377 5.216V25.6058C259.377 26.3915 260.014 27.0284 260.8 27.0284C261.586 27.0284 262.223 26.3915 262.223 25.6058V5.216Z" fill="#E9E9EF"/>
<path d="M268.861 9.00946C268.861 8.22381 268.224 7.58691 267.438 7.58691C266.653 7.58691 266.016 8.22381 266.016 9.00946V25.6058C266.016 26.3915 266.653 27.0284 267.438 27.0284C268.224 27.0284 268.861 26.3915 268.861 25.6058V9.00946Z" fill="#E9E9EF"/>
<path d="M275.499 1.42254C275.499 0.636895 274.862 0 274.077 0C273.291 0 272.654 0.636895 272.654 1.42254V25.6058C272.654 26.3915 273.291 27.0283 274.077 27.0283C274.862 27.0283 275.499 26.3915 275.499 25.6058V1.42254Z" fill="#C5CFD6"/>
<path fill-rule="evenodd" clip-rule="evenodd" d="M12.803 145.221C12.803 139.939 17.0716 135.616 22.2866 135.616V145.221L15.8055 152.212C13.9619 150.503 12.803 147.996 12.803 145.221Z" fill="#F2F2F2"/>
<path fill-rule="evenodd" clip-rule="evenodd" d="M22.0356 145.1H31.6128C31.6128 147.575 30.6029 149.895 29.0064 151.581C27.2504 153.424 24.7498 154.583 22.0356 154.583C19.5355 154.583 17.2471 153.583 15.4906 152.002L22.0356 145.1Z" fill="#AFB9C5"/>
<path fill-rule="evenodd" clip-rule="evenodd" d="M31.77 145.1C31.77 139.884 27.5014 135.616 22.2864 135.616V145.1H31.77ZM17.5446 135.616L21.338 144.151L12.8028 140.358C13.6468 138.145 15.5421 136.46 17.5446 135.616Z" fill="#C5CFD6"/>
<path fill-rule="evenodd" clip-rule="evenodd" d="M321.384 149.452C320.473 150.419 319.182 151.027 317.747 151.027C314.988 151.027 312.752 148.798 312.752 146.048C312.752 143.298 314.988 141.069 317.747 141.069V131.822C309.899 131.822 303.476 138.225 303.476 146.048C303.476 153.87 309.899 160.273 317.747 160.273C321.869 160.273 325.594 158.535 328.134 155.77L321.384 149.452Z" fill="#F2F2F2"/>
<path fill-rule="evenodd" clip-rule="evenodd" d="M317.702 131.822V141.069C320.451 141.069 322.681 143.298 322.681 146.048H331.927C331.927 138.225 325.524 131.822 317.702 131.822Z" fill="#AFB9C5"/>
<path fill-rule="evenodd" clip-rule="evenodd" d="M322.49 146.048C322.49 147.663 321.729 149.099 320.547 150.027L326.361 157.428C329.746 154.778 331.927 150.671 331.927 146.048H322.49Z" fill="#C5CFD6"/>
<path fill-rule="evenodd" clip-rule="evenodd" d="M230.951 18.732C230.25 19.4736 229.257 19.9393 228.153 19.9393C226.031 19.9393 224.311 18.2303 224.311 16.1222C224.311 14.014 226.031 12.305 228.153 12.305V5.216C222.116 5.216 217.175 10.1249 217.175 16.1222C217.175 22.1195 222.116 27.0284 228.153 27.0284C231.323 27.0284 234.189 25.6956 236.143 23.5755L230.951 18.732Z" fill="#F2F2F2"/>
<path fill-rule="evenodd" clip-rule="evenodd" d="M228.082 5.216V12.305C230.19 12.305 231.899 14.014 231.899 16.1222H238.988C238.988 10.1249 234.079 5.216 228.082 5.216Z" fill="#AFB9C5"/>
<path fill-rule="evenodd" clip-rule="evenodd" d="M231.909 16.1222C231.909 17.3338 231.339 18.4108 230.452 19.1062L234.813 24.6574C237.351 22.67 238.987 19.5894 238.987 16.1222H231.909Z" fill="#C5CFD6"/>
<path fill-rule="evenodd" clip-rule="evenodd" d="M58.3274 27.0218C58.3255 27.0266 58.3236 27.0313 58.3208 27.037C58.3236 27.0323 58.3274 27.0133 58.3274 27.0218Z" fill="#C5CFD6"/>
<path fill-rule="evenodd" clip-rule="evenodd" d="M58.3232 27.029C58.3232 27.03 58.3223 27.0319 58.3223 27.0338C58.3223 27.029 58.3308 27.0148 58.3232 27.029Z" fill="#C5CFD6"/>
<path fill-rule="evenodd" clip-rule="evenodd" d="M58.3562 26.9488C58.3495 26.9678 58.341 26.9858 58.3334 27.0048C58.3372 26.9953 58.341 26.9877 58.3448 26.9782C58.2461 27.2248 58.3087 27.0645 58.3562 26.9488Z" fill="#C5CFD6"/>
<path fill-rule="evenodd" clip-rule="evenodd" d="M58.3347 27.0059C58.3309 27.0145 58.3271 27.0239 58.3233 27.0325C58.2958 27.0856 58.3347 27.0059 58.3347 27.0059Z" fill="#C5CFD6"/>
<path fill-rule="evenodd" clip-rule="evenodd" d="M58.319 27.0361C58.3134 27.0475 58.3456 26.9925 58.319 27.0361V27.0361Z" fill="#C5CFD6"/>
<path fill-rule="evenodd" clip-rule="evenodd" d="M58.3232 27.0293L58.3251 27.0274C58.3242 27.0283 58.3242 27.0293 58.3232 27.0293Z" fill="#C5CFD6"/>
<path d="M78.714 2.37091H37.4602C36.4127 2.37091 35.5635 3.2201 35.5635 4.26764V30.3476C35.5635 31.3952 36.4127 32.2443 37.4602 32.2443H78.714C79.7615 32.2443 80.6107 31.3952 80.6107 30.3476V4.26764C80.6107 3.2201 79.7615 2.37091 78.714 2.37091Z" fill="#E9E9EF"/>
<path fill-rule="evenodd" clip-rule="evenodd" d="M52.634 10.9062L39.3569 32.2444H65.9111L52.634 10.9062Z" fill="#AFB9C5"/>
<path fill-rule="evenodd" clip-rule="evenodd" d="M65.6741 16.5964L54.0566 32.2444H77.2915L65.6741 16.5964Z" fill="#C5CFD6"/>
<path d="M70.6529 16.5964C73.0098 16.5964 74.9205 14.6857 74.9205 12.3287C74.9205 9.97178 73.0098 8.0611 70.6529 8.0611C68.2959 8.0611 66.3853 9.97178 66.3853 12.3287C66.3853 14.6857 68.2959 16.5964 70.6529 16.5964Z" fill="#E9E9EF"/>
<path fill-rule="evenodd" clip-rule="evenodd" d="M284.506 229.497C284.507 229.502 284.509 229.507 284.512 229.513C284.509 229.508 284.506 229.489 284.506 229.497Z" fill="#C5CFD6"/>
<path fill-rule="evenodd" clip-rule="evenodd" d="M284.51 229.505C284.51 229.506 284.511 229.507 284.511 229.509C284.511 229.505 284.503 229.49 284.51 229.505Z" fill="#C5CFD6"/>
<path fill-rule="evenodd" clip-rule="evenodd" d="M284.477 229.424C284.484 229.443 284.493 229.461 284.5 229.48C284.496 229.471 284.493 229.463 284.489 229.454C284.587 229.7 284.525 229.54 284.477 229.424Z" fill="#C5CFD6"/>
<path fill-rule="evenodd" clip-rule="evenodd" d="M284.498 229.481C284.502 229.49 284.506 229.499 284.51 229.508C284.537 229.561 284.498 229.481 284.498 229.481Z" fill="#C5CFD6"/>
<path fill-rule="evenodd" clip-rule="evenodd" d="M284.514 229.512C284.52 229.523 284.487 229.468 284.514 229.512V229.512Z" fill="#C5CFD6"/>
<path fill-rule="evenodd" clip-rule="evenodd" d="M284.51 229.505L284.508 229.503C284.509 229.504 284.509 229.505 284.51 229.505Z" fill="#C5CFD6"/>
<path d="M252.739 192.992H316.279C317.327 192.992 318.176 193.841 318.176 194.889V235.668C318.176 236.716 317.327 237.565 316.279 237.565H252.739C251.691 237.565 250.842 236.716 250.842 235.668V194.889C250.842 193.841 251.691 192.992 252.739 192.992Z" fill="#E9E9EF"/>
<path fill-rule="evenodd" clip-rule="evenodd" d="M293.174 205.795L312.642 237.565H273.707L293.174 205.795Z" fill="#AFB9C5"/>
<path fill-rule="evenodd" clip-rule="evenodd" d="M273.102 214.305L290.312 237.565H255.892L273.102 214.305Z" fill="#C5CFD6"/>
<path d="M265.779 214.33C262.243 214.33 259.377 211.464 259.377 207.929C259.377 204.393 262.243 201.527 265.779 201.527C269.314 201.527 272.18 204.393 272.18 207.929C272.18 211.464 269.314 214.33 265.779 214.33Z" fill="#E9E9EF"/>
</svg>
