<svg width="1000" height="750" viewBox="0 0 1000 750" fill="none" xmlns="http://www.w3.org/2000/svg">
<g clip-path="url(#clip0_0_12)">
<path fill-rule="evenodd" clip-rule="evenodd" d="M38.5353 605.501C62.3337 507.697 303.145 563.414 461.018 533.178C618.891 502.942 805.668 362.125 929.28 431.104C1052.89 500.083 921.371 666.826 637.857 704.454C354.343 742.082 14.737 703.305 38.5353 605.501Z" fill="#F2F2F2"/>
<g opacity="0.5">
<path fill-rule="evenodd" clip-rule="evenodd" d="M226.908 183.672C225.335 185.243 225.946 190.824 225.913 192.89C225.862 196.106 226.062 199.292 226.331 202.496C226.511 204.642 227.527 225.114 230.352 223.542C231.945 222.656 230.947 216.734 230.944 214.86C230.937 210.696 230.764 206.542 230.487 202.387C230.229 198.529 230.066 194.716 230.215 190.851C230.251 189.908 231.134 179.439 226.908 183.672" fill="white"/>
<path fill-rule="evenodd" clip-rule="evenodd" d="M295.409 181.149C281.896 181.256 268.388 181.923 254.881 182.331C248.381 182.528 241.886 182.778 235.394 183.138C233.181 183.261 228.436 182.552 226.593 183.731C222.501 186.348 229.1 186.96 230.859 186.896C257.59 185.927 284.329 184.65 311.082 184.59C324.206 184.561 337.323 184.934 350.448 184.851C355.465 184.819 361.02 182.657 362.287 188.497C363.717 195.086 362.074 202.423 361.627 209.045C361.329 213.465 361.435 217.794 361.634 222.211C361.762 225.04 361.429 228.228 361.93 231.005C362.411 233.679 364.333 235.282 366.095 232.287C367.148 230.497 366.624 226.078 366.694 224.005C366.788 221.213 366.7 218.421 366.7 215.628C366.699 208.811 367.661 202.022 367.534 195.206C367.452 190.811 367.219 182.844 361.676 181.788C355.572 180.625 348.069 181.794 341.822 181.723C326.344 181.546 310.892 181.028 295.409 181.149" fill="white"/>
<path fill-rule="evenodd" clip-rule="evenodd" d="M258.174 223.786C253.078 223.786 247.982 223.817 242.887 223.901C238.517 223.973 231.647 223.063 227.579 224.626C224.795 225.696 224.056 228.805 227.579 229.633C231.423 230.536 237.215 229.059 241.236 228.989C261.4 228.633 281.758 228.169 301.894 229.444C320.762 230.638 339.993 231.797 358.888 230.536C360.478 230.43 368.586 230.107 364.886 227.068C362.728 225.294 353.979 226.46 351.174 226.376C341.28 226.077 331.376 226.011 321.485 225.636C311.722 225.265 302.004 224.168 292.238 223.896C280.893 223.58 269.523 223.786 258.174 223.786" fill="white"/>
<path fill-rule="evenodd" clip-rule="evenodd" d="M253.075 194.804C261.017 195.151 268.875 206.669 260.839 212.235C253.3 217.459 239.172 211.734 243.364 201.606C242.761 203.07 244.126 200.015 244.143 199.995C244.94 199.056 246.371 198.016 247.354 197.276C248.478 196.428 249.649 195.496 251.005 195.071C251.895 194.792 251.755 195.841 253.075 194.804ZM249.207 190.65C245.49 192.101 243.794 193.738 241.239 196.701C239.472 198.751 237.218 199.83 237.238 202.6C237.243 203.213 238.03 203.887 238.167 204.478C238.355 205.294 238.137 206.34 238.286 207.207C239.824 216.157 250.501 219.174 258.317 217.484C265.125 216.012 270.217 209.477 268.64 202.37C267.052 195.216 256.444 187.819 249.207 190.65Z" fill="white"/>
<path fill-rule="evenodd" clip-rule="evenodd" d="M245.896 203.143C245.896 206.362 250.982 206.362 250.982 203.143C250.982 199.96 245.896 199.823 245.896 203.143" fill="white"/>
<path fill-rule="evenodd" clip-rule="evenodd" d="M252.258 202.491C252.258 205.049 256.299 205.049 256.299 202.491C256.299 199.962 252.258 199.854 252.258 202.491" fill="white"/>
<path fill-rule="evenodd" clip-rule="evenodd" d="M253.51 207.767C252.216 208.264 250.574 207.233 249.512 207.912C247.631 209.117 249.517 210.206 250.525 210.69C255.065 212.869 255.873 206.861 253.51 207.767" fill="white"/>
<path fill-rule="evenodd" clip-rule="evenodd" d="M322.85 200.632C322.233 200.893 322.714 200.689 322.85 200.632V200.632ZM303.077 197.742C299.679 198.509 296.81 201.683 293.118 201.258C290.289 200.933 288.373 198.202 285.58 197.806C282.007 197.298 272.282 205.449 277.395 206.847C280.378 207.663 282.033 202.212 284.668 201.922C286.753 201.693 289.588 204.25 291.748 204.614C295.778 205.293 298.546 203.073 302.083 201.641C305.928 200.086 308.115 201.487 311.458 203.216C314.097 204.58 316.583 205.469 319.602 204.906C322.436 204.378 325.996 201.463 328.849 201.762C331.643 202.055 333.637 204.971 336.511 205.242C337.696 205.353 339.46 205.757 339.261 203.929C339.101 202.465 337.468 202.713 336.446 202.181C333.818 200.812 331.36 198.388 328.189 198.595C325.803 198.751 323.631 200.427 321.433 201.229C314.233 203.855 310.185 196.148 303.077 197.742Z" fill="white"/>
<path fill-rule="evenodd" clip-rule="evenodd" d="M309.092 244.111C295.204 244.239 281.268 244.445 267.419 245.558C264.135 245.822 230.608 248.988 230.672 249.216C230.789 249.637 235.101 250.282 235.075 250.381C234.784 249.661 234.12 249.362 233.082 249.487C264.879 249.487 296.576 246.64 328.415 247.152C336.416 247.28 344.446 247.227 352.44 247.479C354.436 247.542 359.381 248.972 360.949 248.071C365.062 245.706 357.589 245.433 356.352 245.334C340.683 244.08 324.805 243.954 309.092 244.111" fill="white"/>
<path fill-rule="evenodd" clip-rule="evenodd" d="M226.556 250.859C224.479 252.941 226.391 260.43 226.473 263.245C226.591 267.314 226.494 271.412 226.851 275.471C227.259 280.107 227.891 285.047 229.107 289.545C229.777 292.023 232.129 295.961 233.061 291.459C233.726 288.242 232.716 283.976 232.364 280.7C231.894 276.317 231.78 271.992 231.763 267.587C231.747 263.75 231.673 259.896 231.358 256.071C231.195 254.085 230.196 247.238 226.556 250.859" fill="white"/>
<path fill-rule="evenodd" clip-rule="evenodd" d="M278.794 288.998C268.938 289.167 259.061 289.4 249.222 290.015C245.189 290.268 241.159 290.644 237.141 291.07C236.322 291.157 227.247 291.525 231.302 294.875C233.132 296.387 240.661 294.296 243.147 294.078C247.33 293.712 251.511 293.473 255.705 293.296C265.424 292.883 275.172 292.519 284.9 292.688C302.667 292.996 320.319 293.134 338.09 292.737C340.615 292.681 360.396 293.21 361.068 290.583C361.609 288.466 354.535 289.437 353.245 289.475C348.514 289.617 343.782 289.584 339.048 289.56C318.997 289.457 298.83 288.659 278.794 288.998" fill="white"/>
<path fill-rule="evenodd" clip-rule="evenodd" d="M357.719 247.347C358.032 256.122 359.526 264.887 360.004 273.689C360.222 277.712 360.479 281.732 360.676 285.757C360.74 287.056 360.217 290.184 361.752 290.931C363.858 291.955 364.142 289.891 364.536 288.495C365.675 284.462 364.904 279.224 364.801 275.081C364.701 271.07 364.694 267.051 364.398 263.047C364.095 258.957 363.272 254.943 362.889 250.867C362.728 249.143 363.293 246.274 361.463 245.204C359.881 244.279 357.65 245.445 357.719 247.347" fill="white"/>
<path fill-rule="evenodd" clip-rule="evenodd" d="M260.845 261.944C260.882 261.973 260.919 262.002 260.956 262.031C260.919 262.002 260.882 261.973 260.845 261.944ZM252.469 259.344C255.592 260.236 258.157 259.904 261.141 262.177C263.614 264.063 266.151 266.821 266.971 269.869C268.866 276.911 262.441 280.771 256.418 280.847C250.248 280.924 241.115 279.493 241.431 271.585C241.674 265.509 246.11 259.58 252.469 259.344ZM252.689 255.364C244.59 255.767 238.057 264.863 238.127 272.518C238.212 281.797 248.725 284.188 256.194 284.252C264.623 284.324 273.028 278.504 270.77 269.025C268.96 261.431 260.477 254.96 252.689 255.364Z" fill="white"/>
<path fill-rule="evenodd" clip-rule="evenodd" d="M244.542 267.822C244.542 270.41 248.63 270.41 248.63 267.822C248.63 265.265 244.542 265.155 244.542 267.822" fill="white"/>
<path fill-rule="evenodd" clip-rule="evenodd" d="M253.117 266.687C253.117 269.295 257.237 269.295 257.237 266.687C257.237 264.109 253.117 263.998 253.117 266.687" fill="white"/>
<path fill-rule="evenodd" clip-rule="evenodd" d="M248.39 272.589C245.729 275.245 255.076 279.902 257.281 276.207C259.091 273.171 255.149 274.178 253.752 274.014C252.233 273.835 249.629 271.352 248.39 272.589" fill="white"/>
<path fill-rule="evenodd" clip-rule="evenodd" d="M323.124 266.74C322.868 266.848 322.868 266.848 323.124 266.74V266.74ZM288.022 262.416C285.328 262.921 276.486 265.904 276.367 269.1C276.148 274.91 284.808 268.959 286.688 268.195C291.796 266.119 294.48 270.354 299.612 270.577C304.068 270.771 308.166 266.957 312.364 267.408C316.763 267.881 318.878 272.56 323.956 270.076C326.643 268.762 326.575 266.735 323.559 266.544C321.737 266.429 320.484 267.182 318.584 266.398C315.612 265.172 314.415 263.176 310.859 263.493C308.175 263.733 305.75 265.245 303.13 265.831C297.132 267.171 293.805 261.332 288.022 262.416Z" fill="white"/>
<path fill-rule="evenodd" clip-rule="evenodd" d="M343.818 269.263C343.632 269.341 343.632 269.341 343.818 269.263V269.263ZM344.497 266.844C344.527 266.857 344.73 267.139 344.497 266.844V266.844ZM341.409 264.997C341.293 265.087 341.293 265.087 341.409 264.997V264.997ZM341.476 264.974C342.075 265.333 346.89 268.625 343.393 269.401C341.617 269.794 340.148 266.222 341.476 264.974ZM339.882 261.327C332.169 264.844 340.469 277.429 346.522 272.316C349.069 270.164 349.404 265.815 346.926 263.573C345.442 262.23 341.897 260.406 339.882 261.327Z" fill="white"/>
<path fill-rule="evenodd" clip-rule="evenodd" d="M267.477 310.921C257.852 310.924 248.143 310.722 238.531 311.292C236.914 311.388 230.752 311.08 229.918 312.771C228.394 315.864 234.734 314.329 235.655 314.236C254.793 312.32 274.784 313.423 293.985 313.969C309.689 314.415 325.308 314.692 340.993 315.502C345.116 315.714 349.235 315.949 353.355 316.198C354.698 316.279 358.077 317.169 358.361 315.024C358.622 313.039 354.407 313.488 353.354 313.432C344.979 312.991 336.61 312.529 328.237 312.058C308.085 310.922 287.661 310.917 267.477 310.921" fill="white"/>
<path fill-rule="evenodd" clip-rule="evenodd" d="M229.609 314.36C227.812 316.147 228.654 322.971 228.604 325.227C228.516 329.171 228.33 333.113 228.247 337.057C228.16 341.178 228.28 345.319 228.524 349.435C228.626 351.163 230.045 359.515 232.278 354.736C233.276 352.6 232.254 346.651 232.269 344.23C232.297 339.826 232.534 335.44 232.753 331.041C232.941 327.26 232.948 323.475 233.114 319.693C233.166 318.488 233.309 310.65 229.609 314.36" fill="white"/>
<path fill-rule="evenodd" clip-rule="evenodd" d="M359.98 349.595C350.613 350.555 341.096 350.102 331.694 350.811C323.591 351.422 315.495 351.672 307.371 351.844C288.975 352.232 270.547 352.611 252.204 354.144C248.024 354.493 243.848 354.864 239.657 355.051C237.561 355.145 228.764 354.191 228.109 356.4C226.993 360.164 236.4 358.674 238.429 358.616C242.891 358.487 247.332 358.164 251.781 357.825C270.485 356.4 289.259 355.974 308.003 355.382C318.196 355.06 328.319 354.314 338.49 353.636C343.56 353.298 348.643 353.287 353.712 352.959C355.039 352.873 359.734 353.042 360.688 351.975C361.343 351.242 361.509 349.453 359.98 349.595" fill="white"/>
<path fill-rule="evenodd" clip-rule="evenodd" d="M356.805 315C357.126 323.983 357.634 332.958 357.937 341.94C358.028 344.641 357.212 349.482 358.716 351.865C361.135 355.695 363.023 351.641 363.465 349.254C364.863 341.721 363.361 333.4 362.97 325.82C362.821 322.929 363.719 316.493 362.322 313.905C360.991 311.44 356.685 311.688 356.805 315" fill="white"/>
<path fill-rule="evenodd" clip-rule="evenodd" d="M341.079 327.794C344.668 328.766 345.192 336.567 341.143 337.145C335.116 338.004 337.752 329.402 341.079 327.794ZM340.074 324.691C338.979 324.657 336.453 324.355 335.778 325.246C335.214 325.992 335.784 327.565 335.718 328.275C335.481 330.813 333.417 332.279 334.34 335.276C334.966 337.31 336.643 339.221 338.687 339.927C349.472 343.655 349.341 322.816 340.074 324.691Z" fill="white"/>
<path fill-rule="evenodd" clip-rule="evenodd" d="M242.702 326.091C242.675 326.125 242.648 326.159 242.621 326.194C242.648 326.159 242.675 326.125 242.702 326.091ZM251.173 321.584C251.13 321.223 251.088 320.862 251.046 320.501C256.894 323.261 261.547 328.396 259.605 335.288C258.123 340.546 252.771 342.411 247.784 341.113C242.263 339.675 239.625 335.125 241.114 329.538C241.801 326.96 243.909 323.496 246.635 322.667C247.904 322.281 250.71 323.265 251.173 321.584ZM247.753 319.401C246.274 319.501 244.834 320.117 243.627 320.96C244.757 320.004 246.263 319.435 247.753 319.401ZM247.795 316.005C244.142 316.117 241.747 318.329 239.58 320.985C238.9 321.819 236.6 324.03 236.885 325.154C237.11 326.042 237.699 327.341 238.94 326.35C232.442 339.3 249.228 350.346 259.475 341.34C269.038 332.936 259.55 315.611 247.795 316.005Z" fill="white"/>
<path fill-rule="evenodd" clip-rule="evenodd" d="M244.476 328.035C244.476 329.759 247.153 329.759 247.153 328.035C247.153 326.31 244.476 326.31 244.476 328.035" fill="white"/>
<path fill-rule="evenodd" clip-rule="evenodd" d="M249.044 328.329C249.044 330.082 251.764 330.082 251.764 328.329C251.764 326.576 249.044 326.576 249.044 328.329" fill="white"/>
<path fill-rule="evenodd" clip-rule="evenodd" d="M251.117 334.484C249.845 334.587 245.186 334.155 244.369 335.269C243.002 337.132 245.183 337.197 246.254 337.398C247.219 337.579 251.413 337.477 252.004 336.62C252.526 335.863 252.404 334.374 251.117 334.484" fill="white"/>
<path fill-rule="evenodd" clip-rule="evenodd" d="M307.241 329.653C307.022 329.744 307.022 329.744 307.241 329.653V329.653ZM289.64 328.366C286.772 328.577 284.344 330.226 281.602 330.884C278.676 331.587 277.409 330.295 274.748 329.449C271.98 328.569 270.011 328.917 267.786 330.807C266.526 331.878 263.76 334.344 264.548 336.247C266.352 340.602 270.436 333.516 272.357 333.186C275.353 332.672 278.019 335.292 281.475 334.543C284.606 333.864 287.384 331.714 290.654 331.691C293.389 331.671 295.966 333.168 298.666 333.53C302.788 334.083 305.494 332.619 309.304 331.533C312.608 330.591 314.924 331.833 318.032 332.878C319.452 333.355 324.191 335.091 323.319 331.944C323.072 331.054 316.827 329.464 315.859 329.159C312.445 328.08 310.283 328.5 307.03 329.74C304.318 330.775 302.036 331.279 299.128 330.71C295.924 330.082 293.01 328.11 289.64 328.366Z" fill="white"/>
</g>
<g opacity="0.5">
<path fill-rule="evenodd" clip-rule="evenodd" d="M421.575 184.012C422.038 174.055 422.674 164.113 423.009 154.15C423.176 149.214 423.306 144.276 423.432 139.339C423.459 138.239 423.488 137.14 423.513 136.041C423.594 132.306 423.151 132 426.91 131.668C443.679 130.188 460.515 129.698 477.304 128.358C497.553 126.743 517.907 125.628 538.213 125.128C547.236 124.906 556.298 124.445 565.323 124.725C567.322 124.787 571.247 124.267 572.035 125.821C572.375 126.493 571.661 128.804 571.571 129.578C571.288 131.999 571.024 134.428 570.861 136.861C569.901 151.208 570.473 165.917 573.251 180.047C566.734 176.372 558.5 173.211 550.904 173.838C543.16 174.478 537.367 178.952 531.168 183.07C527.662 185.4 526.481 186.012 522.983 183.756C519.968 181.811 517.116 179.588 514.272 177.405C509.883 174.037 505.741 170.386 501.485 166.855C493.66 160.363 482.878 151.122 472.07 153.843C464.348 155.787 457.218 160.031 450.516 164.184C440.558 170.355 431.545 177.912 421.575 184.012ZM555.779 120.304C517.306 120.304 479.121 124.033 440.756 126.051C436.749 126.261 432.756 126.572 428.764 126.957C426.103 127.214 419.596 126.135 417.852 128.409C416.688 129.926 417.688 130.153 417.852 131.595C418.058 133.411 417.936 135.563 417.883 137.486C417.755 142.118 417.62 146.75 417.515 151.383C417.118 168.893 416.869 186.4 417.578 203.905C417.733 207.723 419.124 213.009 418.363 216.719C417.812 219.405 415.97 221.039 420.218 221.535C424.398 222.024 429.509 220.781 433.693 220.383C437.901 219.983 442.108 219.548 446.321 219.201C464.638 217.692 483.133 217.92 501.499 217.418C520.029 216.912 538.567 216.88 557.104 216.869C564.86 216.865 573.723 217.301 581.291 215.167C583.953 214.415 584.384 214.045 583.727 211.404C583.603 210.902 582.799 210.717 582.563 209.811C582.242 208.578 582.407 207.079 582.332 205.796C582.087 201.604 582.001 197.404 581.804 193.21C581.474 186.201 580.266 179.399 579.372 172.461C578.341 164.449 578.394 156.313 578.373 148.248C578.361 143.775 578.476 139.316 578.835 134.855C579.066 131.994 580.475 127.722 579.76 125.054C579.404 123.725 578.822 122.672 577.439 122.1C576.563 121.737 575.826 122.021 574.96 121.929C573.933 121.82 573.292 121.676 572.062 121.398C566.789 120.203 561.151 120.304 555.779 120.304Z" fill="white"/>
<path fill-rule="evenodd" clip-rule="evenodd" d="M534.487 139.352C534.484 142.141 534.049 146.255 535.335 148.881C536.965 152.211 539.005 151.17 539.545 148.041C539.855 146.247 539.847 140.941 539.271 139.352C538.456 137.104 534.487 135.573 534.487 139.352" fill="white"/>
<path fill-rule="evenodd" clip-rule="evenodd" d="M539.166 140.429C536.548 140.521 528.924 139.893 527.153 141.998C524.115 145.608 529.404 146.247 531.675 146.045C534.303 145.811 542.423 146.382 544.183 144.275C547.127 140.749 541.224 140.354 539.166 140.429" fill="white"/>
<path fill-rule="evenodd" clip-rule="evenodd" d="M437.583 233.579C449.091 235.578 445.511 253.125 434.621 249.06C430.827 247.644 425.237 243.552 427.334 238.731C428.9 235.129 434.006 233.236 437.583 233.579ZM432.818 228.124C425.334 229.384 420.217 237.483 422.783 244.548C425.259 251.363 434.648 256.354 441.573 253.905C448.183 251.566 451.481 242.771 449.253 236.337C446.924 229.615 439.338 227.026 432.818 228.124Z" fill="white"/>
<path fill-rule="evenodd" clip-rule="evenodd" d="M502.816 235.632C499.951 235.869 497.475 237.875 494.592 238.231C491.896 238.563 489.662 237.64 487.138 236.903C484.087 236.012 481.289 235.62 478.171 236.412C475.789 237.017 473.439 238.638 470.964 238.834C466.094 239.218 460.434 233.662 456.632 239.946C454.809 242.959 457.456 244.9 460.182 243.495C463.024 242.03 461.629 241.506 465.155 242.371C468.096 243.092 470.474 243.484 473.42 242.473C476.089 241.558 478.432 239.882 481.333 239.694C484.174 239.51 486.645 240.804 489.36 241.362C492.699 242.048 495.653 241.529 498.817 240.482C501.826 239.487 503.027 238.942 506.064 239.83C507.986 240.393 512.187 242.18 514.058 240.74C517.294 238.251 512.962 237.887 511.256 237.533C508.509 236.964 505.667 235.398 502.816 235.632" fill="white"/>
<path fill-rule="evenodd" clip-rule="evenodd" d="M568.384 233.959C568.407 233.977 568.43 233.995 568.452 234.012C568.43 233.995 568.406 233.977 568.384 233.959ZM565.571 233.371C569.754 233.64 574.277 241.26 568.735 241.53C564.834 241.721 560.469 235.049 565.571 233.371ZM564.984 227.136C551.758 230.829 557.804 249.477 570.562 247.323C576.357 246.344 578.321 239.631 576.405 234.661C575.582 232.526 573.978 230.727 572.061 229.498C570.647 228.592 566.601 226.686 564.984 227.136Z" fill="white"/>
<path fill-rule="evenodd" clip-rule="evenodd" d="M503.276 266.065C514.915 265.666 526.555 265.266 538.206 265.158C544.52 265.1 550.8 265.21 557.105 265.572C559.902 265.732 562.696 265.887 565.495 266.005C565.977 266.026 566.644 265.993 567.38 265.957C569.112 265.872 571.227 265.768 572.222 266.294C577.788 269.238 566.448 269.561 565.07 269.538C561.983 269.486 558.899 269.333 555.815 269.181C553.12 269.048 550.425 268.915 547.727 268.848C530.42 268.423 513.008 269.201 495.671 269.975C491.697 270.152 487.727 270.33 483.763 270.492C479.554 270.665 475.347 270.777 471.14 270.888C465.125 271.048 459.111 271.208 453.097 271.546C450.801 271.675 448.505 271.811 446.208 271.948C442.919 272.144 439.63 272.34 436.339 272.513C433.763 272.649 431.186 272.781 428.607 272.846C428.142 272.857 427.537 272.922 426.876 272.992L426.876 272.992H426.876C425.277 273.163 423.353 273.368 422.313 272.943C421.063 272.432 420.052 271.717 420.739 270.201C421.321 268.92 423.434 269.074 424.974 269.186C425.395 269.217 425.773 269.244 426.065 269.238C430.989 269.143 435.902 268.866 440.817 268.565C442.615 268.455 444.412 268.342 446.209 268.229L446.21 268.229L446.21 268.229L446.21 268.229L446.21 268.229C455.567 267.641 464.915 267.053 474.295 266.893C483.959 266.728 493.617 266.396 503.276 266.065ZM564.065 342.668L567.411 342.628C569.139 342.778 569.912 344.592 568.803 345.986C567.953 347.054 564.684 347.102 562.553 347.133C561.962 347.142 561.459 347.15 561.119 347.177C555.556 347.624 550.004 347.825 544.424 347.879C532.674 347.99 520.968 348.494 509.237 349.163C497.229 349.848 485.211 350.105 473.192 350.363H473.191C464.349 350.552 455.506 350.742 446.667 351.101C441.605 351.307 436.542 351.461 431.478 351.594C430.934 351.608 430.21 351.686 429.391 351.774C426.192 352.12 421.544 352.622 420.491 350.081C419.556 347.827 420.855 346.789 422.755 346.317C422.455 344.982 422.511 343.106 422.543 342.031C422.552 341.708 422.56 341.457 422.555 341.315C422.507 339.968 422.473 338.62 422.44 337.272C422.402 335.745 422.365 334.218 422.306 332.691C422.253 331.306 422.203 329.919 422.153 328.531C421.957 323.059 421.761 317.573 421.34 312.123C421.145 309.607 420.837 307.121 420.529 304.639C420.038 300.676 419.547 296.723 419.525 292.678C419.521 291.95 419.484 291.04 419.443 290.013C419.233 284.761 418.901 276.457 422.161 273.928C427.91 270.573 426.774 280.256 426.266 284.577C426.183 285.291 426.116 285.858 426.1 286.197C425.77 293.382 426.218 300.252 426.942 307.392C427.43 312.214 427.145 317.02 426.859 321.834C426.757 323.553 426.655 325.273 426.588 326.996C426.555 327.848 426.526 328.7 426.496 329.551C426.406 332.172 426.315 334.791 426.118 337.409C426.096 337.692 426.089 338.235 426.08 338.929C426.054 340.886 426.013 344.044 425.594 345.961C426.486 345.922 427.352 345.932 428.067 345.94C428.523 345.945 428.917 345.949 429.219 345.94C430.591 345.898 431.964 345.858 433.337 345.818C437.39 345.699 441.444 345.58 445.497 345.428C455.065 345.068 464.636 344.948 474.207 344.828C485.512 344.686 496.816 344.544 508.115 344.007C526.737 343.122 545.423 342.895 564.065 342.668ZM567.519 272.42C567.509 284.729 568.461 296.7 569.573 308.96C570.261 316.543 570.812 324.155 571.251 331.757C571.272 332.109 571.268 332.696 571.265 333.432V333.433C571.242 337.637 571.194 346.695 575.349 344.528C578.486 342.892 577.28 333.405 576.613 328.155L576.613 328.155C576.467 327.004 576.346 326.056 576.303 325.44C576.212 324.127 576.122 322.814 576.032 321.502C575.614 315.408 575.197 309.318 574.647 303.231L574.531 301.947C573.895 294.917 573.259 287.891 573.146 280.827C573.137 280.243 573.193 279.43 573.257 278.51C573.44 275.851 573.685 272.31 572.58 270.898C571.026 268.911 567.522 269.498 567.519 272.42Z" fill="white"/>
<path fill-rule="evenodd" clip-rule="evenodd" d="M503.808 302.595C518.674 295.869 533.714 289.065 549.174 284.22C550.291 283.87 550.998 285.022 550.744 285.989C550.482 286.985 548.064 287.835 546.46 288.399C545.98 288.568 545.573 288.711 545.319 288.824C543.16 289.789 540.995 290.741 538.83 291.694C536.613 292.669 534.396 293.645 532.185 294.633C527.587 296.687 522.985 298.733 518.383 300.778C513.454 302.968 508.526 305.158 503.603 307.36C503.416 307.443 503.229 307.527 503.043 307.61C509.737 309.989 516.393 312.474 523.02 315.035C525.285 315.909 527.542 316.803 529.799 317.696C531.076 318.201 532.352 318.706 533.631 319.208C534.047 319.371 534.772 319.593 535.643 319.859C538.481 320.725 542.871 322.066 543.196 323.42C543.724 325.626 537.662 323.492 535.376 322.687C535.072 322.58 534.835 322.497 534.689 322.45C531.314 321.371 527.98 320.17 524.648 318.969L524.187 318.802C521.545 317.851 518.908 316.889 516.271 315.927C511.119 314.049 505.968 312.17 500.788 310.368C500.056 310.113 499.323 309.859 498.59 309.606C490.278 313.34 481.982 317.109 473.714 320.938C469.28 322.992 464.871 325.093 460.473 327.222C459.513 327.687 458.325 328.405 457.033 329.186C453.939 331.056 450.255 333.283 447.721 333.227C446.362 333.197 445.446 332.906 445.304 331.259C445.158 329.559 447.339 328.668 448.907 328.027C449.282 327.873 449.622 327.734 449.887 327.602C454.587 325.251 459.316 322.96 464.059 320.698C473.479 316.205 482.987 311.891 492.529 307.663C492.583 307.639 492.638 307.615 492.693 307.59C487.401 305.8 482.095 304.051 476.777 302.34C476.246 302.169 475.157 301.868 473.726 301.471C466.965 299.599 452.563 295.61 453.204 293.28C453.939 290.615 467.442 295.486 473.419 297.643C474.54 298.047 475.396 298.356 475.854 298.502C483.001 300.779 490.128 303.121 497.218 305.57C499.411 304.585 501.608 303.591 503.808 302.595Z" fill="white"/>
<path fill-rule="evenodd" clip-rule="evenodd" d="M440.108 361.133C444.459 361.896 447.529 366.071 447.052 370.442C446.406 376.349 440.519 379.056 435.08 378.286C428.909 377.411 427.611 372.194 430.601 367.176C431.263 366.065 432.024 364.735 433.228 364.15C434.055 363.748 435.109 364.103 435.775 363.779C438.111 362.643 436.706 360.831 440.108 361.133ZM438.126 357.275C432.816 357.953 423.005 364.098 423.501 370.246C423.932 370.959 424.58 371.25 425.445 371.121C425.237 372.453 425.305 373.77 425.649 375.074C426.153 376.766 427.16 378.153 428.508 379.254C431.285 381.524 435.081 382.081 438.539 381.683C444.996 380.941 450.084 376.528 450.447 369.812C450.801 363.257 445.079 356.397 438.126 357.275Z" fill="white"/>
<path fill-rule="evenodd" clip-rule="evenodd" d="M463.846 365.275C461.463 366.537 457.694 368.477 456.297 370.875C454.821 373.408 456.349 376.179 459.459 374.981C461.928 374.03 463.498 371.008 466.132 370.039C468.456 369.184 469.392 369.62 471.849 370.471C474.38 371.348 476.592 372.196 479.328 371.98C482.767 371.71 485.745 369.716 489.111 369.263C491.945 368.881 494.282 369.983 496.996 370.422C500.145 370.931 502.204 369.739 505.15 369.118C507.154 368.696 510.686 370.414 512.148 369.771C515.434 368.326 511.957 366.56 510.138 365.976C507.073 364.993 505.187 365.86 502.272 366.676C499.107 367.561 497.74 366.895 494.714 366.082C488.593 364.438 483.864 368.415 478.062 367.692C472.691 367.022 469.476 362.293 463.846 365.275" fill="white"/>
<path fill-rule="evenodd" clip-rule="evenodd" d="M563.935 362.336C569.827 367.86 563.208 375.719 556.712 371.304C554.426 369.751 554.389 367.255 556.168 365.022C557.796 362.98 561.371 362.184 563.935 362.336ZM561.751 357.872C556.247 358.943 551.055 361.469 550.556 367.822C550.07 374.02 556.428 376.899 561.769 376.493C573.761 375.579 572.894 355.718 561.751 357.872Z" fill="white"/>
</g>
<g opacity="0.5">
<path fill-rule="evenodd" clip-rule="evenodd" d="M229.509 399.362C221.085 399.456 212.665 399.767 204.257 400.299C196.262 400.806 187.587 400.421 179.722 401.971C177.488 402.411 174.471 404.446 177.441 406.685C179.528 408.259 187.165 406.449 189.657 406.295C198.836 405.731 208.02 405.055 217.212 404.731C225.914 404.423 234.615 404.315 243.322 404.228C244.651 404.215 246.857 403.789 248.181 404.175C250.083 404.729 249.632 404.88 249.774 407.294C250.032 411.668 249.961 416.058 249.874 420.436C249.79 424.673 249.633 428.909 249.649 433.148C249.659 436.172 248.693 442.181 250.21 444.807C252.394 448.588 254.66 444.482 254.823 441.97C255.136 437.165 254.996 432.302 254.997 427.491C254.998 422.976 255.031 418.46 254.872 413.947C254.756 410.687 255.222 404.996 253.466 402.032C251.677 399.013 247.37 399.664 244.228 399.52C239.326 399.295 234.415 399.311 229.509 399.362Z" fill="white"/>
<path fill-rule="evenodd" clip-rule="evenodd" d="M175.91 404.81C175.919 413.294 174.937 421.722 174.662 430.196C174.536 434.093 174.28 438.371 175.266 442.196C176.261 446.058 179.421 446.895 179.785 442.583C180.522 433.853 180.342 424.8 180.915 415.999C181.118 412.892 182.437 407.198 181.206 404.288C180.122 401.725 175.905 401.234 175.91 404.81Z" fill="white"/>
<path fill-rule="evenodd" clip-rule="evenodd" d="M254.906 442.207C240.276 444.144 224.982 443.438 210.247 443.743C203.178 443.889 196.111 443.898 189.041 443.972C186.573 443.997 180.307 443.059 178.173 444.446C174.775 446.654 178.461 448.358 180.711 448.407C194.663 448.712 208.771 448.071 222.72 447.613C228.987 447.407 235.275 447.307 241.526 446.774C245.374 446.446 249.579 446.128 253.316 445.094C254.112 444.873 255.846 444.919 256.024 443.833C256.134 443.162 255.935 442.066 254.906 442.207Z" fill="white"/>
<path fill-rule="evenodd" clip-rule="evenodd" d="M194.07 454.54C190.004 454.564 177.751 452.675 176.067 456.64C173.822 461.928 182.58 460.694 184.935 460.633C190.285 460.496 195.63 460.481 200.981 460.484C206.231 460.486 211.481 460.452 216.73 460.327C218.251 460.291 221.791 460.922 222.666 459.09C223.331 457.699 222.805 456.601 221.579 455.864C218.628 454.091 210.963 455.119 207.509 454.959C203.036 454.754 198.548 454.54 194.07 454.54Z" fill="white"/>
<path fill-rule="evenodd" clip-rule="evenodd" d="M243.537 455.519C241.213 455.657 236.513 454.699 234.431 455.763C232.065 456.972 232.899 458.864 234.941 459.696C236.356 460.272 242.159 459.97 243.537 459.303C244.973 458.607 246.597 455.331 243.537 455.519Z" fill="white"/>
<path fill-rule="evenodd" clip-rule="evenodd" d="M269.013 405.643C266.531 406.324 267.284 420.414 267.22 422.647C267.045 428.767 266.357 436.464 268.39 442.358C269.687 446.115 272.178 445.605 271.753 441.65C271.381 438.178 270.741 434.746 270.464 431.252C269.839 423.345 268.987 414.911 269.578 406.997C269.83 407.457 272.184 411.722 272.738 411.403C272.571 411.503 270.023 405.377 269.013 405.643Z" fill="white"/>
<path fill-rule="evenodd" clip-rule="evenodd" d="M296.93 400.453C291.908 400.528 286.885 400.617 281.864 400.756C277.871 400.867 271.598 400.211 267.937 401.891C263.577 403.89 265.645 408.345 269.74 408.439C273.363 408.523 277.226 407.706 280.881 407.581C290.754 407.242 300.645 407.171 310.522 407.086C319.456 407.009 328.769 407.962 337.624 406.62C338.937 418.283 335.385 429.995 336.593 441.792C336.78 443.623 336.696 446.21 339.028 446.627C341.971 447.154 342.092 444.239 342.204 442.152C342.522 436.193 342.35 430.229 342.786 424.262C343.19 418.732 343.986 413.081 343.313 407.542C342.486 400.727 339.22 401.273 333.447 400.99C321.254 400.392 309.137 400.274 296.93 400.453Z" fill="white"/>
<path fill-rule="evenodd" clip-rule="evenodd" d="M280.098 441.866C277.538 441.931 273.288 441.142 271.648 443.596C269.942 446.15 271.966 448.377 274.447 448.901C277.384 449.521 281.213 448.671 284.261 448.662C287.435 448.652 290.61 448.688 293.784 448.7C307.392 448.753 321.058 448.959 334.657 448.397C336.556 448.318 341.946 448.955 343.26 447.133C344.427 445.518 343.611 444.069 342.074 443.246C339.554 441.895 334.378 442.409 331.575 442.302C328.113 442.17 324.646 442.127 321.183 442.073C307.511 441.862 293.768 441.528 280.098 441.866Z" fill="white"/>
<path fill-rule="evenodd" clip-rule="evenodd" d="M291.609 453.67C286.517 453.757 281.083 453.533 276.041 454.306C271.608 454.985 271.062 459.27 275.834 459.772C280.22 460.233 285.537 459.372 289.944 459.089C291.509 458.988 293.329 459.131 294.079 457.4C294.862 455.593 293.365 453.859 291.609 453.67Z" fill="white"/>
<path fill-rule="evenodd" clip-rule="evenodd" d="M330.108 454.12C327.39 454.188 319.451 453.019 318.104 456.124C315.863 461.292 326.611 459.329 328.673 459.253C331.272 459.157 341.4 460.675 341.402 456.538C341.404 452.481 332.597 454.059 330.108 454.12Z" fill="white"/>
<path fill-rule="evenodd" clip-rule="evenodd" d="M175.47 479.804C175.477 489.206 174.891 498.697 175.749 508.076C176.104 511.955 176.043 519.386 178.29 522.674C179.885 525.008 182.097 524.845 182.968 522.042C183.55 520.168 182.619 516.421 182.515 514.416C182.415 512.493 182.298 510.57 182.209 508.645C181.98 503.688 181.999 498.739 182.067 493.779C182.125 489.524 183.149 483.895 182.184 479.804C181.283 475.991 175.47 475.099 175.47 479.804Z" fill="white"/>
<path fill-rule="evenodd" clip-rule="evenodd" d="M269.967 471.532C253.654 471.941 237.304 471.576 221.006 472.383C212.968 472.781 204.961 473.656 196.963 474.527C193.034 474.956 189.107 475.398 185.185 475.881C184.001 476.027 174.166 476.408 177.865 480.148C179.48 481.782 184.62 480.076 186.654 479.835C190.593 479.37 194.539 478.965 198.482 478.548C205.987 477.754 213.5 477.002 221.037 476.585C238.786 475.601 256.609 475.896 274.375 475.241C279.181 475.064 283.973 474.937 288.781 475.126C290.043 475.175 299.321 475.647 295.293 472.22C293.388 470.6 286.207 471.436 283.827 471.387C279.207 471.292 274.585 471.416 269.967 471.532Z" fill="white"/>
<path fill-rule="evenodd" clip-rule="evenodd" d="M292.205 487.373C292.125 483.029 292.044 478.685 291.846 474.344C291.638 469.773 297.865 469.081 299.711 472.781C301.041 475.445 300.807 479.977 300.606 483.862C300.526 485.427 300.45 486.888 300.485 488.078C300.564 490.806 300.765 493.628 300.968 496.486C301.48 503.68 302.009 511.111 300.664 517.902C300.01 521.202 297.227 522.936 295.374 521.138C295.371 521.141 295.369 521.145 295.366 521.149C294.669 522.176 292.5 522.174 290.902 522.172C290.462 522.172 290.065 522.171 289.755 522.192C285.378 522.49 281.082 522.992 276.743 523.642C268.099 524.938 259.53 525.734 250.793 525.95C244.864 526.097 238.927 526.146 232.989 526.196C221.617 526.29 210.24 526.384 198.904 527.162C195.082 527.425 191.319 527.875 187.56 528.594C187.24 528.655 186.884 528.734 186.506 528.819C183.711 529.44 179.664 530.34 179.388 526.434C179.059 521.798 189.107 521.19 194.278 520.878C195.068 520.83 195.744 520.789 196.251 520.742C211.952 519.282 227.899 519.508 243.666 519.732C244.43 519.742 245.194 519.753 245.957 519.764C247.187 519.781 248.417 519.801 249.647 519.821C256.398 519.933 263.141 520.044 269.889 519.631C272.96 519.443 276.072 519.346 279.189 519.25C284.162 519.096 289.149 518.941 294.013 518.414C293.279 515.57 293.151 512.214 293.03 509.051C292.983 507.819 292.937 506.617 292.857 505.485C292.43 499.456 292.317 493.415 292.205 487.373Z" fill="white"/>
<path fill-rule="evenodd" clip-rule="evenodd" d="M305.408 477.693C303.204 477.992 301.366 479.879 302.35 482.271C303.589 485.283 307.28 484.106 309.718 483.915C317.468 483.308 325.56 484.521 333.217 483.606C335.308 483.356 338.341 482.217 336.464 479.407C335.053 477.296 329.911 477.666 327.725 477.464C320.25 476.772 312.873 476.957 305.408 477.693Z" fill="#C1DEE2"/>
<path fill-rule="evenodd" clip-rule="evenodd" d="M318.488 490.834C315.483 491.036 308.486 490.877 307.219 494.297C304.947 500.432 313.846 498.27 316.556 497.921C319.704 497.516 327.124 498.601 328.8 495.549C331.797 490.091 321.124 490.652 318.488 490.834Z" fill="#C1DEE2"/>
<path fill-rule="evenodd" clip-rule="evenodd" d="M310.759 504.298C309.333 505.724 309.331 508.271 310.759 509.698C312.507 511.445 316.317 511.082 318.614 511.209C321.818 511.388 331.021 513.083 332.612 509.31C334.759 504.219 326.425 504.326 323.684 504.037C320.516 503.704 313.385 501.671 310.759 504.298Z" fill="#C1DEE2"/>
<path fill-rule="evenodd" clip-rule="evenodd" d="M198.437 417.159C198.437 422.632 206.985 422.632 206.985 417.159C206.985 411.715 198.437 411.632 198.437 417.159Z" fill="white"/>
<path fill-rule="evenodd" clip-rule="evenodd" d="M214.651 417.221C214.651 423.478 224.388 423.465 224.388 417.221C224.388 410.985 214.651 410.922 214.651 417.221Z" fill="white"/>
<path fill-rule="evenodd" clip-rule="evenodd" d="M204.842 425.54C200.11 426.847 204.47 430.858 206.667 431.774C210.16 433.23 214.927 434.304 218.42 432.12C219.81 431.251 220.938 430.097 219.92 428.411C218.834 426.615 217.349 427.414 215.696 427.579C213.603 427.79 211.911 427.757 209.89 427.086C208.381 426.585 206.488 425.087 204.842 425.54Z" fill="white"/>
<path fill-rule="evenodd" clip-rule="evenodd" d="M290.69 417.505C290.69 421.207 296.438 421.207 296.438 417.505C296.438 413.803 290.69 413.803 290.69 417.505Z" fill="white"/>
<path fill-rule="evenodd" clip-rule="evenodd" d="M303.402 418.062C303.402 422.175 309.788 422.176 309.788 418.062C309.788 413.949 303.402 413.949 303.402 418.062Z" fill="white"/>
<path fill-rule="evenodd" clip-rule="evenodd" d="M302.929 426.988C299.575 427.421 289.873 428.404 289.33 432.539C288.493 438.918 299.123 433.755 301.549 433.254C304.64 432.616 307.399 432.783 310.484 432.907C312.178 432.974 314.431 433.249 314.253 430.669C313.962 426.432 305.861 426.612 302.929 426.988Z" fill="white"/>
<path fill-rule="evenodd" clip-rule="evenodd" d="M218.592 485.814C216.16 486.463 212.98 490.666 214.653 493.239C217.396 497.458 218.605 490.98 219.753 490.356C221.842 489.222 223.537 493.368 225.72 491.193C229.164 487.761 220.76 485.234 218.592 485.814Z" fill="white"/>
<path fill-rule="evenodd" clip-rule="evenodd" d="M246.45 482.696C243.567 482.722 237.48 486.804 237.049 489.818C236.793 491.609 237.98 493.33 239.911 493.354C242.54 493.386 243.375 489.968 245.654 489.253C248.112 488.482 247.747 490.258 249.87 491.178C251.424 491.852 253.367 491.57 253.907 489.66C254.925 486.057 249.413 482.639 246.45 482.696Z" fill="white"/>
<path fill-rule="evenodd" clip-rule="evenodd" d="M224.38 499.954C219.768 502.656 227.356 508.449 229.987 509.174C233.958 510.267 241.951 508.226 242.893 503.375C243.267 501.444 242.059 499.695 239.929 500.041C238.174 500.326 237.049 502.527 235.424 503.315C233.23 504.378 231.28 504.306 229.417 502.705C227.898 501.4 227.085 498.376 224.38 499.954Z" fill="white"/>
<path fill-rule="evenodd" clip-rule="evenodd" d="M227.722 539.885C223.602 540.764 219.413 540.174 215.273 541.001C211.051 541.843 208.528 543.438 204.606 541.831C204.421 541.753 204.237 541.676 204.053 541.598C201.017 540.29 197.835 539.903 194.658 541.987C192.777 543.22 187.068 547.486 187.756 550.089C189.247 555.732 195.671 546.883 197.309 546.021C200.433 544.376 202.574 546.477 205.79 547.07C209.642 547.78 212.741 545.745 216.37 544.934C220.613 543.986 225.387 543.656 229.705 543.148C231.41 542.948 237.871 544.297 238.454 542.174C239.456 538.528 229.342 539.542 227.722 539.885Z" fill="#C1DEE2"/>
<path fill-rule="evenodd" clip-rule="evenodd" d="M257.449 551.25C257.503 551.29 257.719 551.454 257.449 551.25V551.25ZM268.989 539.665C272.517 539.307 283.802 536.787 286.12 540.432C287.629 542.806 285.234 551.568 282.949 552.702C281.123 553.607 276.869 552.606 274.865 552.535C271.136 552.404 267.4 552.346 263.676 552.113C262.427 552.035 258.407 552.265 257.428 551.159C256.272 549.854 256.323 542.895 256.051 541.169C259.294 542.219 265.598 540.009 268.989 539.665ZM276.521 536.091C272.004 536.287 267.487 536.626 263.003 537.232C260.504 537.57 257.971 538.468 255.663 538.894C254.919 539.031 253.711 538.65 252.799 539.091C250.132 540.379 252.467 549.089 253.11 551.415C254.098 554.99 256.583 555.569 260.066 555.905C264.653 556.35 269.334 556.21 273.936 556.154C278.371 556.099 284.352 557.082 286.841 552.632C288.45 549.754 290.175 543.053 288.8 539.846C286.991 535.626 280.237 535.935 276.521 536.091Z" fill="#C1DEE2"/>
<path fill-rule="evenodd" clip-rule="evenodd" d="M327.111 553.644C326.869 553.954 326.869 553.954 327.111 553.644V553.644ZM328.101 552.45C327.679 552.93 328.026 552.564 328.101 552.45V552.45ZM317.327 552.122C319.319 551.748 321.311 551.377 323.304 551.013C321.417 553.656 319.429 552.564 316.203 552.334C316.578 552.263 316.953 552.193 317.327 552.122ZM307.827 551.187C308.331 551.018 308.836 550.85 309.341 550.681C309.325 551.065 309.408 551.425 309.588 551.76C308.724 551.666 307.861 551.566 306.998 551.46C307.274 551.369 307.551 551.278 307.827 551.187ZM303.424 547.936C303.396 547.243 304.438 547.719 305.036 547.672C303.884 548.686 303.346 548.775 303.424 547.936ZM319.169 540.072C319.321 539.878 319.522 539.888 319.772 540.101C319.499 540.192 318.449 540.638 319.169 540.072ZM329.38 538.871C329.407 538.871 329.974 539.636 329.38 538.871V538.871ZM329.094 538.62C329.242 538.734 329.242 538.734 329.094 538.62V538.62ZM327.819 538.471C329.749 541.274 329.907 538.824 327.819 538.471V538.471ZM303.291 538.304C302.867 538.657 303.012 538.315 303.291 538.304V538.304ZM311.275 533.088C307.731 533.294 301.224 533.087 298.264 534.975C294.401 537.44 296.434 545.926 296.78 549.646C297.29 555.144 299.878 556.71 305.056 557.287C311.236 557.976 317.585 558.104 323.797 557.941C329.391 557.794 332.577 555.87 333.602 549.98C333.916 548.177 334.712 545.389 334.687 543.663C334.67 542.466 334.073 541.92 333.848 540.902C332.563 535.105 330.414 534.417 324.473 534.165C320.1 533.979 315.566 532.863 311.275 533.088Z" fill="white"/>
</g>
<g opacity="0.5">
<path fill-rule="evenodd" clip-rule="evenodd" d="M499.032 399.913C508.044 400.105 518.268 405.093 516.843 415.659C515.799 423.399 509.098 429.682 501.336 430.224C492.994 430.806 484.174 424.404 483.041 415.91C481.766 406.357 490.22 399.722 499.032 399.913ZM494.613 395.612C490.959 396.157 487.468 398.076 484.251 399.794C483.023 400.451 476.798 404.452 481.681 405.446C469.916 424.419 497.603 442.043 513.17 429.712C520.161 424.174 523.841 413.675 519.322 405.457C514.649 396.957 503.566 394.267 494.613 395.612Z" fill="white"/>
<path fill-rule="evenodd" clip-rule="evenodd" d="M492.459 411.762C492.459 415.306 497.959 415.306 497.959 411.762C497.959 408.218 492.459 408.218 492.459 411.762Z" fill="white"/>
<path fill-rule="evenodd" clip-rule="evenodd" d="M502.657 412.329C502.657 416.171 508.621 416.171 508.621 412.329C508.621 408.488 502.657 408.488 502.657 412.329Z" fill="white"/>
<path fill-rule="evenodd" clip-rule="evenodd" d="M495.775 419.927C494.972 422.842 504.123 424.337 504.428 420.964C504.573 419.352 496.333 417.894 495.775 419.927Z" fill="white"/>
<path fill-rule="evenodd" clip-rule="evenodd" d="M522.599 418.126C533.129 416.862 543.985 417.446 554.565 417.749C557.213 417.826 559.861 417.9 562.509 417.944C564.192 417.972 567.828 418.78 569.298 417.992C575.315 414.765 563.511 413.205 561.84 413.057C551.316 412.191 535.075 411.882 524.52 412.29C521.398 412.412 520.723 418.351 522.599 418.126Z" fill="white"/>
<path fill-rule="evenodd" clip-rule="evenodd" d="M569.98 470.469C570.07 459.437 570.466 448.33 571.314 437.33C571.659 432.847 572.074 428.37 572.417 423.886C572.579 421.775 573.329 418.817 572.088 416.964C570.809 415.055 568.003 414.658 566.312 416.35C564.288 418.97 564.876 423.367 564.624 426.537C564.237 431.41 563.77 436.28 563.537 441.164C563.088 450.616 562.983 460.233 563.743 469.673C564.102 474.127 564.879 478.473 565.914 482.817C566.385 484.795 570.132 493.603 569.345 494.818C568.124 496.702 559.099 495.99 557.141 496.042C552.117 496.177 547.092 496.265 542.067 496.361C537.765 496.443 533.463 496.502 529.16 496.54C527.452 496.555 517.414 496.251 519.641 498.784C494.741 500.519 469.366 497.622 444.618 496.629C443.368 496.578 441.323 496.223 439.435 496.121C439.209 495.209 439.023 494.395 438.977 493.828C438.652 489.851 438.567 485.86 438.214 481.884C437.569 474.608 436.318 467.407 435.574 460.144C434.831 452.889 434.906 445.612 434.473 438.339C434.399 437.093 434.224 426.885 431.648 424.404C432.869 424.867 434.839 424.928 435.973 424.836C445.153 424.096 454.266 422.5 463.368 421.131C465.972 420.74 471.881 421.017 474.041 419.716C475.91 418.589 476.65 414.638 473.398 414.958C464.322 415.93 455.296 417.439 446.292 418.924C443.883 419.321 441.481 419.746 439.079 420.18C437.475 420.47 433.241 420.448 431.997 421.415C430.486 422.589 430.326 423.388 430.838 423.919C430.126 423.723 429.273 424.031 428.248 425.056C426.31 427.578 428.132 433.789 428.363 436.746C428.64 440.293 428.777 443.845 428.938 447.399C429.25 454.275 429.97 461.056 431.076 467.85C432.316 475.46 433.371 483.102 434.614 490.71C434.937 492.691 435.359 494.623 435.898 496.537C432.549 498.249 434.826 500.973 437.481 501.456C437.5 501.46 437.52 501.462 437.539 501.466C438.367 503.485 439.525 505.355 440.429 502.65C440.498 502.442 440.531 502.187 440.539 501.9C447.398 502.676 454.938 502.194 461.691 502.47C476.319 503.068 491.037 503.965 505.68 503.51C511.477 503.33 517.291 502.815 523.039 502.042C526.407 501.589 529.788 501.048 533.102 500.297C533.339 500.243 533.7 500.187 534.117 500.118C534.185 500.116 534.254 500.114 534.318 500.114C539.393 500.037 544.463 499.901 549.533 499.69C553.789 499.513 558.064 499.422 562.306 499.021C564.941 498.772 570.51 498.818 572.127 496.168C573.598 493.759 571.139 487.552 570.79 484.846C570.176 480.08 569.941 475.27 569.98 470.469Z" fill="#C1DEE2"/>
<path fill-rule="evenodd" clip-rule="evenodd" d="M518.556 438.614C514.501 438.961 510.752 440.865 506.66 440.889C503.225 440.908 499.844 439.882 496.39 440.034C492.339 440.21 490.11 442.83 486.562 443.707C483.737 444.404 481.957 442.241 479.472 441.285C476.335 440.077 474.017 440.701 471.328 442.528C469.352 443.87 464.744 446.883 464.78 449.599C464.886 457.825 474.483 446.462 476.417 446.324C478.988 446.141 481.86 449.071 484.595 449.238C488.211 449.459 490.529 447.128 493.859 446.279C497.226 445.42 500.866 446.472 504.242 446.799C508.093 447.171 511.464 446.313 515.19 445.394C518.801 444.503 521.878 444.55 525.547 445.298C528.023 445.803 534.192 448.739 535.276 444.964C536.751 439.823 521.39 438.373 518.556 438.614Z" fill="white"/>
<path fill-rule="evenodd" clip-rule="evenodd" d="M519.79 454.302C511.482 455.109 503.123 455.816 494.777 456.042C491.162 456.141 477.266 454.591 478.498 459.185C479.555 463.123 498.465 460.643 502.317 460.343C506.569 460.013 510.814 459.551 515.046 459.016C516.545 458.826 520.166 459.022 521.224 457.765C522.233 456.565 521.736 454.108 519.79 454.302Z" fill="white"/>
<path fill-rule="evenodd" clip-rule="evenodd" d="M462.475 475.221C462.286 475.301 462.286 475.301 462.475 475.221V475.221ZM464.228 475.197C466.299 475.132 465.855 474.04 467.921 474.609C468.874 474.871 468.972 474.482 469.711 475.393C471.152 477.17 469.795 481.039 468.374 482.471C463.113 487.773 456.799 475.433 464.228 475.197ZM464.228 469.995C449.825 470.479 455.851 492.728 468.387 488.186C473.564 486.311 476.818 477.861 473.773 473.112C472.292 470.802 470.403 470.391 467.921 470.231C467.345 470.194 466.62 471.031 466.261 470.993C465.406 470.903 465.486 469.948 464.228 469.995Z" fill="white"/>
<path fill-rule="evenodd" clip-rule="evenodd" d="M498.671 475.983C498.414 475.904 503.218 477.301 502.693 476.754C503.815 477.921 502.306 480.68 501.037 481.161C497.964 482.328 496.24 477.549 498.671 475.983ZM500.803 469.95C496.293 470.589 492.813 472.467 492.196 477.482C491.627 482.111 494.755 486.799 499.688 486.889C510.442 487.086 510.769 468.56 500.803 469.95Z" fill="white"/>
<path fill-rule="evenodd" clip-rule="evenodd" d="M549.893 476.186C541.999 476.882 550.522 484.406 549.893 476.186V476.186ZM546.235 467.392C545.489 468.666 546.125 470.018 547.25 470.759C537.196 472.884 539.473 488.013 549.704 485.778C554.907 484.641 555.863 479.17 555.088 474.653C554.719 472.505 549.366 462.038 546.235 467.392Z" fill="white"/>
</g>
<g opacity="0.5">
<path fill-rule="evenodd" clip-rule="evenodd" d="M513.7 566.376C523.206 567.756 533.094 572.227 533.011 583.292C532.941 592.595 525.139 602.496 515.119 601.94C506.103 601.441 497.612 591.58 496.483 583.13C495.898 578.752 496.993 574.039 499.568 570.437C502.942 565.719 508.296 565.726 513.7 566.376ZM509.21 560.362C502.334 560.399 497.304 562.886 493.049 568.136C491.523 570.018 489.748 572.044 488.586 574.177C487.501 576.169 487.691 581.234 491.415 578.859C490.498 588.665 496.229 598.182 504.467 603.207C513.422 608.669 523.544 607.604 530.997 599.948C537.819 592.94 540.22 581.103 535.229 572.436C530.241 563.774 518.683 560.269 509.21 560.362Z" fill="#C5CFD6"/>
<path fill-rule="evenodd" clip-rule="evenodd" d="M529.826 557.734C525.424 560.96 521.405 565.208 518.067 569.517C514.804 573.728 512.647 578.987 508.727 582.66C506.748 580.504 504.429 574.681 500.48 576.991C497.203 578.908 499.313 582.205 500.909 584.369C505.03 589.958 509.606 592.208 514.891 586.685C519.691 581.67 522.417 574.98 526.905 569.677C528.873 567.349 531.915 565.04 533.482 562.47C534.903 560.142 533.146 555.294 529.826 557.734" fill="#C5CFD6"/>
</g>
<g opacity="0.5">
<path fill-rule="evenodd" clip-rule="evenodd" d="M696.175 207.878C696.182 208.318 696.188 208.731 696.197 209.112C696.403 217.416 696.284 226.146 695.609 234.431C695.376 237.292 693.295 240.917 690.921 236.974C689.877 235.24 690.024 231.68 690.131 229.061C690.16 228.358 690.186 227.724 690.186 227.21C690.184 224.288 690.337 221.336 690.491 218.375C690.792 212.588 691.095 206.77 690.238 201.086C690.221 200.971 690.204 200.861 690.189 200.754C689.816 198.255 689.791 198.082 687.042 198.139C685.896 198.163 684.75 198.194 683.605 198.225C682.478 198.255 681.351 198.286 680.224 198.309C679.104 198.333 677.985 198.354 676.866 198.376C673.356 198.443 669.846 198.511 666.337 198.639C665.752 198.661 664.659 198.798 663.281 198.971C660.524 199.316 656.624 199.806 653.342 199.803C653.343 199.817 653.344 199.831 653.345 199.845C653.347 199.871 653.349 199.896 653.349 199.922C653.386 201.734 652.919 203.756 652.45 205.788C652.058 207.49 651.664 209.199 651.563 210.795C651.322 214.594 651.319 218.433 651.317 222.273C651.313 226.948 651.31 231.623 650.877 236.225C650.856 236.45 650.843 236.687 650.83 236.927C650.829 236.959 650.827 236.991 650.825 237.023C650.974 237 651.118 236.984 651.257 236.975C653.623 236.825 656.008 236.812 658.39 236.798C659.704 236.791 661.016 236.784 662.323 236.753C664.671 236.699 667.048 236.702 669.434 236.704C674.701 236.71 680.015 236.716 685.167 236.109C686.689 235.912 687.221 237.863 686.538 238.875C685.927 239.781 684.244 239.928 683.012 240.035C682.699 240.063 682.415 240.087 682.185 240.121C678.862 240.613 675.495 240.785 672.142 240.934C668.621 241.09 665.096 241.206 661.573 241.304C660.734 241.328 659.615 241.441 658.374 241.566C655.097 241.897 650.972 242.314 648.925 241.388C646.724 240.392 646.776 239.287 647.674 238.431C647.28 237.564 647.218 236.299 647.169 235.309C647.151 234.931 647.134 234.593 647.102 234.333C646.614 230.392 646.319 226.501 646.312 222.526C646.298 214.74 646.314 206.653 648.468 199.116C647.605 198.738 647.085 198.181 647.087 197.379C647.097 193.335 659.682 193.541 665.665 193.639C666.735 193.656 667.593 193.67 668.131 193.656C672.489 193.542 676.848 193.527 681.207 193.551C682.128 193.556 683.153 193.495 684.215 193.433C686.474 193.3 688.901 193.158 690.852 193.611C695.978 194.801 696.101 202.965 696.175 207.878Z" fill="white"/>
<path fill-rule="evenodd" clip-rule="evenodd" d="M728.235 194.497C732.994 194.245 737.756 194.188 742.521 194.17C747.566 194.145 752.618 194.235 757.661 194.39L757.778 194.394C760.012 194.461 772.432 194.834 766.726 197.929C766.394 198.11 766.019 198.26 765.61 198.386C765.852 199.819 765.881 201.298 765.842 202.011C765.695 204.714 765.598 207.421 765.501 210.127C765.435 211.961 765.369 213.795 765.287 215.628C765.063 220.692 764.849 225.757 764.675 230.824C764.653 231.446 764.686 232.259 764.723 233.166C764.844 236.163 765.007 240.18 763.379 241.665C761.95 242.968 760.974 242.707 760.316 241.821C756.228 243.009 747.832 242.623 743.611 242.429C742.593 242.382 741.819 242.346 741.405 242.346C740.665 242.347 739.289 242.439 737.553 242.556C730.324 243.041 716.829 243.948 716.802 240.384C716.799 240.041 716.91 239.734 717.12 239.458C716.547 238.874 716.032 238.016 715.701 236.945C714.513 233.101 714.401 228.954 714.313 224.968C714.188 219.34 714.187 213.705 714.186 208.072C714.185 205.178 714.184 202.285 714.167 199.394C713.394 198.356 713.853 197.169 714.817 196.341C716.87 194.579 721.966 194.558 725.652 194.542C726.644 194.538 727.534 194.534 728.235 194.497ZM720.491 237.895C725.078 236.916 732.807 237.231 736.947 237.4C738.032 237.444 738.87 237.478 739.342 237.476C743.571 237.46 747.801 237.519 752.027 237.688C752.465 237.705 753.113 237.689 753.877 237.669C755.412 237.631 757.412 237.58 759.111 237.769C759.088 237.538 759.073 237.328 759.064 237.146C758.873 233.384 759.011 229.59 759.147 225.817V225.817C759.176 225.015 759.205 224.214 759.231 223.415C759.322 220.594 759.442 217.774 759.563 214.955L759.563 214.955L759.563 214.953C759.639 213.178 759.714 211.403 759.783 209.628C759.813 208.849 759.768 207.79 759.718 206.6V206.6C759.616 204.178 759.49 201.208 759.924 198.926C758.359 198.897 756.756 198.786 755.285 198.684C753.869 198.586 752.575 198.497 751.558 198.496C750.268 198.496 748.979 198.492 747.689 198.488H747.689H747.689H747.689C744.115 198.477 740.543 198.466 736.969 198.537C736.631 198.544 736.292 198.55 735.952 198.557L735.952 198.557L735.952 198.557C731.032 198.652 726.07 198.748 721.191 199.396C720.905 199.434 720.562 199.507 720.181 199.596C720.716 201.832 720.454 204.983 720.225 207.742C720.113 209.082 720.009 210.33 720.008 211.336C720.001 217.592 720.166 223.823 720.331 230.048L720.331 230.049L720.331 230.049C720.394 232.404 720.456 234.757 720.509 237.111C720.516 237.392 720.509 237.653 720.491 237.895Z" fill="white"/>
<path fill-rule="evenodd" clip-rule="evenodd" d="M668.284 241.123C665.157 242.95 666.843 250.259 667.927 252.786C669.708 256.943 673.322 260.195 677.222 262.352C685.104 266.712 696.466 265.554 702.427 273.114C702.489 273.192 704.549 275.232 705.018 272.59C705.403 270.422 701.557 267.111 700.066 266.025C695.827 262.934 690.391 261.938 685.488 260.394C680.259 258.748 674.521 255.713 672.328 250.322C671.552 248.413 673.032 238.337 668.284 241.123Z" fill="#C1DEE2"/>
<path fill-rule="evenodd" clip-rule="evenodd" d="M739.779 244.637C736.913 245.427 738.809 249.371 738.804 251.345C738.799 253.809 738.011 256.387 736.493 258.353C732.643 263.338 725.104 264.085 719.452 265.515C715.348 266.553 705.529 268.78 705.145 274.331C704.716 280.529 713.384 272.986 714.117 272.677C722.219 269.705 732.701 269.131 738.955 262.589C741.536 259.888 743.062 256.284 743.305 252.564C743.441 250.469 743.465 243.63 739.779 244.637Z" fill="#C1DEE2"/>
<path fill-rule="evenodd" clip-rule="evenodd" d="M680.561 299.616C680.494 288.148 691.469 281.211 701.393 278.601C713.322 275.458 724.434 283.817 725.84 295.84C727.324 308.529 717.76 318.744 705.149 319.304C694.054 319.796 680.632 311.853 680.561 299.616ZM707.207 284.115C707.852 284.992 708.435 286.392 707.135 287.154C705.884 287.883 705.26 287.007 704.631 286.125C704.234 285.568 703.835 285.009 703.276 284.851C701.826 284.443 699.496 285.968 698.288 286.857C697.798 287.218 697.1 287.995 696.284 288.904C693.688 291.795 689.897 296.017 687.802 292.384C679.446 306.813 700.278 317.612 712.124 312.151C725.134 306.154 722.602 284.229 707.207 284.115Z" fill="white"/>
<path fill-rule="evenodd" clip-rule="evenodd" d="M696.289 295.777C696.289 298.409 700.446 298.409 700.446 295.777C700.446 293.174 696.289 293.063 696.289 295.777Z" fill="white"/>
<path fill-rule="evenodd" clip-rule="evenodd" d="M703.603 295.283C703.603 298.507 708.697 298.507 708.697 295.283C708.697 292.095 703.603 291.959 703.603 295.283Z" fill="white"/>
<path fill-rule="evenodd" clip-rule="evenodd" d="M698.369 302.796C694.203 305.247 706.117 310.116 706.587 305.14C706.79 302.993 704.711 303.572 703.325 303.415C701.999 303.263 699.627 302.064 698.369 302.796Z" fill="white"/>
<path fill-rule="evenodd" clip-rule="evenodd" d="M696.562 320.181C696.743 326.44 696.656 332.696 697.843 338.867C698.069 340.039 698.225 344.291 699.152 345.162C701.431 347.304 701.468 343.199 701.557 341.625C701.873 335.99 701.281 330.179 701.151 324.532C701.122 323.316 701.444 320.799 700.871 319.622C699.96 317.755 696.473 317.2 696.562 320.181Z" fill="#C1DEE2"/>
<path fill-rule="evenodd" clip-rule="evenodd" d="M692.106 315.106C682.973 325.357 670.396 324.602 657.726 325.5C651.031 325.974 644.262 326.948 638.876 331.278C636.37 333.293 634.21 335.816 632.758 338.691C632.124 339.948 629.114 347.201 633.634 345.481C635.237 344.87 636.815 340.074 637.852 338.655C639.827 335.953 642.354 333.722 645.385 332.272C651.232 329.475 658.214 329.523 664.554 329.168C671.181 328.797 678.294 328.45 684.386 325.568C687.252 324.212 689.94 322.522 692.246 320.343C693.071 319.564 694.838 318.241 694.969 317.05C695.12 315.689 693.812 313.197 692.106 315.106Z" fill="#C1DEE2"/>
<path fill-rule="evenodd" clip-rule="evenodd" d="M646 346.569C637.421 346.856 628.852 347.203 620.285 347.746C618.53 347.857 612.676 347.502 614.167 351.1C615.362 353.983 622.501 352.076 624.862 351.936C633.789 351.406 642.753 351.222 651.662 350.419C653.663 350.239 662.709 350.31 658.973 346.764C657.196 345.076 648.455 346.486 646 346.569Z" fill="white"/>
<path fill-rule="evenodd" clip-rule="evenodd" d="M608.719 350.707C606.015 354.259 607.258 362.891 607.462 367.161C607.66 371.298 606.856 378.863 612.257 379.505C610.542 379.28 613.559 379.609 614.05 379.635C615.146 379.694 616.248 379.713 617.346 379.725C619.883 379.753 622.421 379.719 624.957 379.668C630.702 379.554 636.462 379.386 642.2 379.069C644.612 378.935 657.696 379.047 658.214 376.541C658.876 373.339 646.331 375.151 644.085 375.253C638.616 375.504 633.138 375.557 627.664 375.628C624.951 375.664 622.235 375.691 619.522 375.638C618.401 375.616 613.965 376.076 613.284 375.328C612.703 374.692 613.156 368.842 613.144 367.947C613.104 365.03 613.107 362.107 613.211 359.191C613.281 357.228 614.342 353.493 613.477 351.649C612.636 349.856 610.185 349.244 608.719 350.707Z" fill="white"/>
<path fill-rule="evenodd" clip-rule="evenodd" d="M652.895 350.873C653.052 357.371 653.1 363.999 654.635 370.354C655.146 372.468 655.861 376.829 657.986 377.924C660.215 379.073 662.141 377.433 662.286 375.223C662.47 372.446 660.982 368.799 660.677 365.949C660.321 362.624 660.114 359.296 659.992 355.954C659.9 353.441 660.664 349.673 658.268 348.053C656.116 346.597 652.825 348.063 652.895 350.873Z" fill="white"/>
<path fill-rule="evenodd" clip-rule="evenodd" d="M669.968 349.287C667.3 351.945 668.492 360.36 668.826 363.775C669.07 366.276 671.808 378.581 675.91 372.164C677.725 369.326 675.419 361.821 675.436 358.511C675.446 356.403 676.192 353.738 675.832 351.713C675.356 349.037 672.388 346.87 669.968 349.287Z" fill="white"/>
<path fill-rule="evenodd" clip-rule="evenodd" d="M688.443 347.093C696.457 346.266 704.481 345.646 712.539 345.569C712.926 345.566 713.333 345.561 713.756 345.556C719.279 345.486 727.579 345.38 731.296 349.528C733.321 351.787 734.238 355.28 735.038 358.325C735.187 358.892 735.332 359.445 735.479 359.971C735.605 360.42 735.769 360.932 735.946 361.486C736.781 364.1 737.91 367.637 736.765 369.826C736.137 371.027 735.126 372.051 733.591 371.626C733.233 371.526 732.952 371.399 732.731 371.249C733.319 371.885 733.58 372.792 733.198 373.678C732.46 375.392 730.128 375.429 728.291 375.457C727.846 375.464 727.429 375.471 727.072 375.501C720.953 376.011 714.806 376.351 708.665 376.405C705.742 376.43 702.818 376.406 699.894 376.383C696.884 376.358 693.875 376.333 690.865 376.363C688.681 376.384 686.456 376.592 684.231 376.8C681.421 377.062 678.611 377.324 675.878 377.212C673.834 377.128 671.651 376.459 672.169 373.817C672.592 371.66 674.622 371.472 676.441 371.303C676.599 371.289 676.756 371.274 676.91 371.258C682.702 370.669 688.498 370.46 694.32 370.481C706.551 370.523 718.772 370.46 731.003 370.396C731.506 370.438 731.979 370.63 732.369 370.922C731.929 370.388 731.937 369.676 731.946 368.919C731.951 368.576 731.955 368.223 731.918 367.874C731.843 367.171 731.774 366.471 731.706 365.772C731.48 363.463 731.255 361.171 730.815 358.849C730.748 358.498 730.684 358.112 730.617 357.704C730.216 355.293 729.686 352.098 727.769 350.796C725.841 349.487 722.061 349.55 719.115 349.599C718.319 349.612 717.585 349.624 716.964 349.608C709.103 349.405 701.196 349.964 693.371 350.675C692.77 350.73 692.168 350.782 691.565 350.835C688.588 351.094 685.595 351.355 682.661 351.887C682.124 351.985 681.304 352.271 680.363 352.6C677.859 353.473 674.503 354.644 673.362 353.354C669.584 349.081 686.188 347.326 688.443 347.093Z" fill="white"/>
<path fill-rule="evenodd" clip-rule="evenodd" d="M773.707 337.363C774.056 337.811 774.056 337.811 773.707 337.363V337.363ZM719.473 310.887C714.605 313.748 723.614 322.143 725.909 323.441C731.073 326.363 738.17 326.804 743.936 327.625C751.234 328.666 759.176 329.049 766.19 331.44C769.178 332.459 771.077 334.049 773.034 336.493C774.025 337.732 776.413 343.069 778.587 341.805C782.964 339.261 771.169 328.583 768.57 327.435C762.662 324.825 755.678 324.094 749.36 323.081C743.486 322.138 737.486 321.437 731.757 319.775C728.607 318.862 726.368 317.388 724.552 314.567C723.42 312.809 722.492 309.121 719.473 310.887Z" fill="#C1DEE2"/>
<path fill-rule="evenodd" clip-rule="evenodd" d="M794.091 343.681C788.479 343.806 782.878 344.238 777.278 344.669C774.136 344.911 770.995 345.153 767.853 345.341C766.87 345.4 765.886 345.453 764.902 345.506L764.902 345.506L764.902 345.506C762.133 345.655 759.361 345.804 756.606 346.083C756.188 346.125 755.703 346.165 755.174 346.208C752.834 346.4 749.644 346.662 747.605 347.516C745.736 346.102 742.851 347.304 742.806 349.824C742.729 354.414 742.771 358.923 743.331 363.485C743.461 364.544 744.13 369.905 745.586 372.696C745.068 375.332 747.315 376.07 749.406 376.272C757.506 377.054 765.999 376.447 774.378 375.849C778.639 375.544 782.871 375.242 787.006 375.125C788.381 375.086 789.774 375.071 791.175 375.055C795.747 375.004 800.407 374.952 804.833 374.087C805.011 374.052 805.202 374.018 805.402 373.982C807.152 373.669 809.565 373.236 809.749 371.31C809.859 370.154 809.207 369.096 808.116 368.947C808.191 367.984 808.07 366.933 807.981 366.161L807.981 366.161C807.96 365.981 807.941 365.816 807.927 365.671C807.661 362.993 806.994 360.332 806.335 357.705L806.335 357.705L806.335 357.705C806.187 357.114 806.04 356.525 805.897 355.939C805.739 355.289 805.593 354.515 805.435 353.682C804.879 350.739 804.179 347.042 802.32 345.325C800.369 343.525 797.194 343.604 794.65 343.668C794.46 343.673 794.273 343.678 794.091 343.681ZM803.966 369.235C803.301 367.493 803.106 365.138 802.921 362.899V362.899C802.805 361.494 802.692 360.134 802.47 359.001C802.302 358.151 802.165 357.255 802.026 356.344L802.026 356.344C801.688 354.131 801.337 351.832 800.506 349.893C799.394 347.296 798.404 347.395 796.062 347.63C795.627 347.674 795.144 347.722 794.606 347.759C792.219 347.921 789.834 348.127 787.45 348.334L787.45 348.334C786.306 348.433 785.162 348.532 784.018 348.626C779.122 349.028 774.223 349.338 769.324 349.647L769.324 349.647C766.462 349.828 763.599 350.008 760.737 350.208C758.491 350.364 756.298 350.791 754.115 351.216C752.386 351.553 750.662 351.889 748.922 352.088C748.897 352.683 748.847 353.28 748.799 353.849C748.734 354.624 748.674 355.346 748.687 355.937C748.744 358.559 748.975 361.164 749.207 363.774C749.243 364.175 749.278 364.576 749.313 364.978C749.355 365.459 749.459 366.077 749.574 366.763C749.751 367.824 749.956 369.046 750.001 370.171C750.213 370.17 750.424 370.171 750.631 370.171C750.899 370.172 751.162 370.173 751.415 370.169C757.583 370.061 763.747 369.874 769.912 369.637C770.699 369.607 771.486 369.576 772.273 369.546C777.773 369.332 783.273 369.117 788.778 369.054C790.965 369.029 793.18 369.098 795.403 369.167C798.262 369.255 801.132 369.344 803.966 369.235Z" fill="white"/>
</g>
<path fill-rule="evenodd" clip-rule="evenodd" d="M358.181 396.584C365.455 400.971 372.602 403.091 375.957 402.226C384.37 400.056 385.144 369.257 378.634 357.115C372.125 344.974 338.661 339.681 336.974 363.738C336.388 372.088 339.892 379.539 345.068 385.619L335.787 428.909H362.747L358.181 396.584Z" fill="#B28B67"/>
<path fill-rule="evenodd" clip-rule="evenodd" d="M367.985 343.891C364.301 342.767 358.954 342.386 356.704 342.644C357.984 339.576 358.492 336.157 358.078 332.829C357.675 329.595 356.231 326.841 354.896 323.955C354.28 322.625 353.582 321.303 352.542 320.285C351.482 319.249 350.141 318.565 348.735 318.238C347.295 317.904 345.79 317.932 344.348 318.235C343.711 318.369 343.138 318.661 342.513 318.823C341.873 318.989 341.562 318.588 341.097 318.185C339.977 317.214 338.334 316.734 336.917 316.562C335.327 316.37 333.676 316.61 332.16 317.133C330.684 317.642 329.266 318.469 328.198 319.674C327.723 320.21 327.292 320.821 327.011 321.495C326.896 321.771 326.877 321.935 326.602 322.036C326.347 322.13 326.048 322.133 325.785 322.222C323.24 323.085 321.063 325.053 319.879 327.58C319.187 329.054 318.86 331.649 318.949 334.558C319.039 337.468 321.664 345.058 324.119 347.827C326.311 350.298 329.532 351.929 332.64 352.643C330.577 355.003 329.203 357.952 328.188 360.952C327.085 364.21 326.402 367.595 326.15 371.045C325.91 374.322 325.888 377.788 326.656 380.995C327.374 383.994 328.91 386.455 331.474 388.016C332.649 388.731 333.912 389.268 335.183 389.759C336.436 390.243 337.692 390.713 339.004 390.985C341.488 391.498 344.349 391.41 346.262 389.432C346.951 388.719 347.709 387.823 348.212 386.952C348.393 386.639 348.502 386.434 348.283 386.127C348.019 385.761 347.594 385.48 347.255 385.193C345.327 383.557 344.134 381.373 343.833 378.778C343.527 376.145 344.234 372.747 346.792 371.598C349.95 370.179 353.428 371.807 356.235 373.325C357.427 369.112 359.877 365.319 363.717 363.386C367.965 361.248 372.84 360.998 377.205 359.164C378.343 358.686 379.502 358.143 380.339 357.169C380.689 356.762 381.1 356.234 381.24 355.696C381.423 354.989 380.967 354.396 380.615 353.844C378.749 350.921 371.669 345.015 367.985 343.891Z" fill="#191847"/>
<path fill-rule="evenodd" clip-rule="evenodd" d="M333.54 718.932C381.311 718.932 420.037 681.941 420.037 636.309C420.037 590.678 381.311 553.686 333.54 553.686C285.769 553.686 247.043 590.678 247.043 636.309C247.043 681.941 285.769 718.932 333.54 718.932Z" fill="#C5CFD6"/>
<path fill-rule="evenodd" clip-rule="evenodd" d="M468.015 631.903C472.194 646.548 482.602 674.306 496.995 706.184L510.672 702.191C498.707 628.837 488.749 580.273 483.045 565.492C479.276 555.726 450.764 556.87 454.044 576.52C455.419 584.761 460.862 606.826 468.015 631.903ZM411.8 579.947C389.495 584.571 343.25 600.918 330.045 606.142C321.745 609.425 327.096 620.558 334.176 619.584C335.375 619.419 339.617 618.944 345.946 618.236C366.276 615.96 408.143 611.273 439.896 606.699C456.615 604.291 447.621 572.952 430.261 576.268C424.421 577.384 418.209 578.618 411.8 579.947Z" fill="#B28B67"/>
<path fill-rule="evenodd" clip-rule="evenodd" d="M483.919 557.214C481.639 549.767 377.982 523.335 377.982 523.335H369.487V531.256L440.916 567.644C440.821 568.818 440.879 570.059 441.11 571.368C440.594 598.343 452.131 618.495 463.553 638.447C471.023 651.494 478.444 664.456 482.413 679.185L508.656 675.267C507.891 673.31 506.683 664.489 505.03 652.428C500.862 622.016 493.873 571.007 484.067 557.512C484.032 557.465 483.998 557.418 483.962 557.371C483.95 557.319 483.935 557.266 483.919 557.214Z" fill="#1F28CF"/>
<path fill-rule="evenodd" clip-rule="evenodd" d="M375.421 589.254C368.886 587.945 362.867 586.776 357.717 585.872C324.451 580.034 314.751 562.214 320.486 523.335H381.778C391.79 526.213 443.822 548.049 470.819 559.662C488.686 567.349 483.054 595.059 472.935 602.27C472.881 602.713 472.698 603.013 472.374 603.148C434.011 619.059 401.297 617.872 380.29 617.109C371.491 616.79 364.746 616.545 360.5 617.662L353.847 596.66L375.421 589.254Z" fill="#2B44FF"/>
<path fill-rule="evenodd" clip-rule="evenodd" d="M337.043 604.783C337.004 603.612 336.017 602.678 334.853 602.797C332.471 603.041 328.744 603.543 326.965 604.411C324.234 605.744 319.438 609.212 319.438 609.212C320.983 612.382 347.213 666.198 347.213 666.198C347.213 666.198 355.634 664.837 353.886 659.766C352.139 654.695 351.067 651.299 351.067 651.299L349.953 618.926C349.934 618.363 349.454 617.927 348.892 617.962L343.808 618.282C343.808 618.282 339.583 614.86 338.233 612.09C337.377 610.334 337.118 606.992 337.043 604.783Z" fill="#E4E4E4"/>
<path fill-rule="evenodd" clip-rule="evenodd" d="M493.314 698.909C492.245 698.431 490.971 698.908 490.568 700.008C489.743 702.258 488.56 705.829 488.56 707.81C488.56 710.85 489.572 716.684 489.572 716.684C493.097 716.684 552.93 716.684 552.93 716.684C552.93 716.684 555.4 708.513 550.079 707.862C544.758 707.21 541.239 706.686 541.239 706.686L511.675 693.497C511.16 693.267 510.558 693.508 510.343 694.029L508.402 698.741C508.402 698.741 503.476 701.041 500.396 701.041C498.444 701.041 495.332 699.81 493.314 698.909Z" fill="#E4E4E4"/>
<path fill-rule="evenodd" clip-rule="evenodd" d="M464.61 534.166L428.778 507.835L420.857 527.429L456.34 542.154C466.375 553.95 471.987 558.868 473.175 556.907C474.176 555.253 473.393 553.705 472.672 552.279C472.11 551.169 471.586 550.132 471.972 549.177C472.854 546.997 479.595 547.227 485.982 547.718C492.37 548.21 490.509 545.365 488.968 543.961C482.448 540.055 474.328 536.79 464.61 534.166ZM276.697 580.562C279.989 573.879 291.199 508.744 291.199 508.744L314.674 508.836C314.674 508.836 292.932 579.072 291.199 583.369C288.948 588.952 292.772 597.063 295.365 602.563C295.766 603.414 296.138 604.202 296.453 604.909C292.855 606.52 291.127 604.573 289.305 602.52C287.247 600.201 285.069 597.748 279.943 600.134C277.963 601.056 276.089 602.146 274.258 603.211C267.934 606.89 262.124 610.27 254.22 605.39C252.967 604.616 251.594 601.703 254.912 599.426C263.177 593.755 275.088 583.829 276.697 580.562Z" fill="#B28B67"/>
<path fill-rule="evenodd" clip-rule="evenodd" d="M357.911 410.172L367.624 408.505C403.665 439.66 418.468 499.513 462.644 531.22L452.011 544.409C375.373 534.914 356.378 461.907 357.911 410.172Z" fill="#E87613"/>
<path fill-rule="evenodd" clip-rule="evenodd" d="M315.567 532.328C315.567 532.328 373.989 532.328 401.515 532.328C405.442 532.328 404.702 526.653 404.134 523.789C397.582 490.74 372.004 455.114 372.004 408.068L347.213 404.178C326.707 437.18 319.616 477.813 315.567 532.328Z" fill="#DDE3E9"/>
<path fill-rule="evenodd" clip-rule="evenodd" d="M305.902 555.934C302.04 565.218 298.252 573.319 294.683 579.541H276.25C274.267 515.375 298.543 466.001 318.86 436.23C314.349 435.907 310.277 434.018 307.703 429.371C298.642 413.009 301.914 404.001 311.598 401.04C316.923 399.411 321.931 400.523 327.926 401.853C332.832 402.942 338.398 404.177 345.339 404.178C345.342 404.178 345.344 404.178 345.346 404.178C346.019 404.178 346.631 404.223 347.187 404.309L355.413 404.779C355.413 404.779 388.814 518.058 373.837 555.934H305.902Z" fill="#FF9B21"/>
<path fill-rule="evenodd" clip-rule="evenodd" d="M305.902 555.934C310.971 543.754 316.168 529.536 321.169 514.853C323.031 531.023 326.131 547.263 331.293 555.934H305.902Z" fill="black" fill-opacity="0.1"/>
<path fill-rule="evenodd" clip-rule="evenodd" d="M674.823 325.65C667.538 330.041 660.38 332.162 657.02 331.296C648.594 329.125 647.82 298.302 654.339 286.151C660.858 273.999 694.372 268.703 696.061 292.779C696.647 301.134 693.139 308.592 687.955 314.676L697.25 358H670.25L674.823 325.65Z" fill="#B28B67"/>
<path fill-rule="evenodd" clip-rule="evenodd" d="M660.423 278.138C661.042 277.769 662.335 276.99 662.991 276.708C663.146 276.64 664.232 275.865 664.261 275.875C665.084 276.153 667.465 277.177 667.669 278.062C667.701 278.129 667.732 278.192 667.762 278.247C668.1 278.86 668.409 279.489 668.705 280.125C669.353 281.522 669.912 282.982 670.447 284.43C671.487 287.25 672.391 290.137 673.223 293.03C674.069 295.975 674.787 298.954 675.591 301.911C676.748 306.166 678.229 310.317 679.378 314.57C680.112 317.286 680.52 320.034 680.327 322.829C680.326 322.863 680.324 322.896 680.321 322.93C680.32 322.944 680.319 322.958 680.317 322.972C680.285 323.401 680.238 323.832 680.176 324.264C680.121 324.634 680.066 325.004 680.008 325.375C678.959 323.282 678.157 320.976 677.307 318.787C677.224 318.573 677.144 318.357 677.067 318.14C676.793 317.696 676.513 317.256 676.23 316.817C674.447 314.048 672.658 311.29 670.948 308.471C667.873 303.401 664.827 298.224 661.181 293.569C660.105 292.194 659.003 290.841 657.94 289.455C657.335 288.666 656.746 287.864 656.176 287.048C655.769 286.464 653.997 284.43 654.639 283.208C654.967 282.582 658.819 279.096 660.423 278.138Z" fill="#2C2C2C"/>
<path fill-rule="evenodd" clip-rule="evenodd" d="M662.796 276.81C662.194 277.012 662.487 275.761 663.069 275.32C665.768 273.28 676.086 272.54 685.064 274.403C691.079 275.652 698.075 278.76 702.879 282.755C707.21 286.357 710.188 292.13 711.722 297.709C713.332 303.566 713.575 309.673 712.678 315.679C712.481 316.998 712.058 318.256 711.822 319.547C711.556 321.001 711.42 322.401 710.946 323.816C710.656 324.683 710.163 325.532 709.916 326.403C709.633 327.397 709.806 328.316 710.012 329.328C710.347 330.975 710.764 332.62 711.355 334.194C712.244 336.557 713.322 338.771 713.998 341.223C714.897 344.486 718.659 355.106 715.91 358H663.576C664.894 354.405 668.85 350.175 669.65 346.327C670.122 344.06 670.346 339.11 670.396 338.93C671.575 330.8 673.878 326.918 675.32 325.509C676.762 324.1 678.683 323.667 678.782 322.445C679.191 317.39 677.181 312.547 675.707 307.83C673.951 302.207 672.664 296.446 670.853 290.842C670.051 288.361 665.919 275.761 662.796 276.81Z" fill="#8991DC"/>
<path fill-rule="evenodd" clip-rule="evenodd" d="M683.118 300.785C683.542 292.229 683.118 288.887 681.144 282.625H682.361C684.285 285.11 685.894 292.711 684.086 300.785H683.118ZM706.966 300.382L706.966 300.382L706.966 300.38C707.178 299.861 707.396 299.33 707.62 298.785L708.394 299.157C705.953 308.084 702.984 314.976 692.789 320.754L691.996 320.199C701.638 313.419 703.705 308.36 706.966 300.382ZM692.51 289.704C692.408 290.478 692.31 291.232 692.215 291.969C690.749 303.279 689.82 310.452 681.65 323.46L682.576 323.743C691.531 311.679 692.951 301.833 693.374 289.773L692.51 289.704ZM701.33 326.365L702.122 327.328C698.154 328.159 695.457 331.077 692.364 334.422C689.092 337.961 685.378 341.979 679.25 344.508L678.112 343.818C684.801 340.341 687.913 336.884 690.63 333.866C693.442 330.742 695.832 328.088 701.33 326.365Z" fill="black" fill-opacity="0.2"/>
<path fill-rule="evenodd" clip-rule="evenodd" d="M715.213 453L672.941 591.467L652.464 709.223H636.408L658.046 453H715.213Z" fill="#997659"/>
<path fill-rule="evenodd" clip-rule="evenodd" d="M730.336 453C727.465 529.026 730.844 568.241 731.486 575.148C732.129 582.055 740.928 626.842 761.76 711.542L744.651 705.655C711.729 627.973 700.51 587.6 696.734 577.399C692.958 567.199 682.929 525.732 666.648 453H730.336Z" fill="#B28B67"/>
<path fill-rule="evenodd" clip-rule="evenodd" d="M758.761 704.204C759.831 703.725 761.106 704.203 761.509 705.303C762.334 707.556 763.517 711.132 763.517 713.115C763.517 716.159 762.504 722 762.504 722C758.979 722 699.146 722 699.146 722C699.146 722 696.677 713.819 701.998 713.167C707.319 712.515 710.838 711.989 710.838 711.989L740.401 698.784C740.916 698.554 741.519 698.795 741.734 699.317L743.675 704.035C743.675 704.035 748.601 706.338 751.681 706.338C753.632 706.338 756.744 705.106 758.761 704.204Z" fill="#E4E4E4"/>
<path fill-rule="evenodd" clip-rule="evenodd" d="M653.168 704.204C654.238 703.725 655.513 704.203 655.916 705.303C656.74 707.556 657.923 711.132 657.923 713.115C657.923 716.159 656.911 722 656.911 722C653.386 722 593.553 722 593.553 722C593.553 722 591.083 713.819 596.404 713.167C601.725 712.515 605.245 711.989 605.245 711.989L634.808 698.784C635.323 698.554 635.926 698.795 636.14 699.317L638.082 704.035C638.082 704.035 643.007 706.338 646.087 706.338C648.039 706.338 651.15 705.106 653.168 704.204Z" fill="#E4E4E4"/>
<path fill-rule="evenodd" clip-rule="evenodd" d="M720.83 453L702.857 523.547H647.959L656.144 453H720.83Z" fill="#69A1AC"/>
<path fill-rule="evenodd" clip-rule="evenodd" d="M730.94 453C739.811 479.642 734.31 523.547 734.31 523.547H678.289L662.884 453H730.94Z" fill="#89C5CC"/>
<path fill-rule="evenodd" clip-rule="evenodd" d="M792.067 488.484C787.873 482.331 759.604 399.535 759.604 399.535L735.222 403.055C735.222 403.055 775.759 489.272 778.075 493.282C781.084 498.491 778.419 507.048 776.612 512.851C776.333 513.748 776.074 514.58 775.86 515.323C779.652 516.415 781.095 514.248 782.616 511.963C784.335 509.383 786.153 506.652 791.569 508.299C793.661 508.935 795.671 509.752 797.635 510.55C804.418 513.308 810.65 515.841 817.81 509.912C818.945 508.972 819.902 505.899 816.295 504.109C807.31 499.651 794.117 491.491 792.067 488.484ZM581.951 484.205L609.19 449.038L622.217 465.669L592.114 489.594C585.704 503.69 581.657 509.96 579.973 508.404C578.553 507.092 578.88 505.39 579.181 503.822C579.416 502.601 579.635 501.46 579 500.65C577.551 498.8 571.124 500.879 565.11 503.113C559.096 505.347 560.104 502.102 561.2 500.329C566.401 494.78 573.318 489.405 581.951 484.205Z" fill="#B28B67"/>
<path fill-rule="evenodd" clip-rule="evenodd" d="M675.56 340.904L665.695 340.608C658.045 396.289 585.204 443.748 583.231 464.438C582.507 472.026 588.321 474.993 585.901 477.613L599.709 485.003C601.482 482.235 606.642 486.117 615.647 481.629C624.653 477.141 684.471 404.309 675.56 340.904Z" fill="#DB2721"/>
<path fill-rule="evenodd" clip-rule="evenodd" d="M691.611 327.212C693.772 326.753 695.896 328.133 696.356 330.294L697.83 337.225C717.917 348.604 768.7 383.904 791.296 459.729C793.67 467.694 792.058 472.366 790.771 476.098C789.89 478.652 789.16 480.766 789.962 483.194L774.209 490.012C773.951 488.173 771.689 487.063 768.77 485.632C764.527 483.551 758.896 480.79 756.019 474.112C753.292 467.782 749.497 459.931 745.06 451.227C746.464 463.383 745.729 474.847 742.012 484.779C732.74 509.557 656.91 494.469 646.058 472.046C640.267 460.08 644.506 448.755 650.113 433.778C657.23 414.765 666.55 389.867 660.356 350.3L657.841 338.475C657.381 336.315 658.76 334.191 660.921 333.732L691.611 327.212Z" fill="#FF4133"/>
</g>
<defs>
<clipPath id="clip0_0_12">
<rect width="1000" height="750" fill="white"/>
</clipPath>
</defs>
</svg>
